<?xml version="1.0" encoding="UTF-8" standalone="no"?>
<svg xmlns="http://www.w3.org/2000/svg"
     xmlns:inkscape="http://www.inkscape.org/namespaces/inkscape"
     width="44.044mm" height="70.000mm"
     viewBox="0 0 1931 3069" style="background:#ffffff">
  <title>pidan 01 voskhozhdenie laser series</title>
  <desc>Red CUT layer: outer profile and hole.</desc>
  <g id="CUT" inkscape:groupmode="layer" inkscape:label="CUT"
     fill="none" stroke="#ff0000" stroke-width="4.384"
     vector-effect="non-scaling-stroke">
    <path id="outer-cut" d="M 959.00,8.00 L 926.00,10.00 L 905.00,13.00 L 873.00,21.00 L 868.00,21.00 L 852.00,27.00 L 848.00,27.00 L 843.00,30.00 L 832.00,33.00 L 828.00,36.00 L 825.00,36.00 L 821.00,39.00 L 818.00,39.00 L 814.00,42.00 L 811.00,42.00 L 786.00,55.00 L 764.00,69.00 L 737.00,90.00 L 711.00,115.00 L 683.00,152.00 L 668.00,180.00 L 660.00,199.00 L 653.00,220.00 L 653.00,225.00 L 650.00,231.00 L 650.00,237.00 L 647.00,246.00 L 647.00,255.00 L 644.00,262.00 L 637.00,270.00 L 626.00,276.00 L 622.00,276.00 L 617.00,279.00 L 605.00,282.00 L 600.00,285.00 L 565.00,297.00 L 554.00,303.00 L 551.00,303.00 L 527.00,315.00 L 524.00,315.00 L 471.00,342.00 L 403.00,384.00 L 365.00,412.00 L 326.00,444.00 L 293.00,474.00 L 260.00,507.00 L 227.00,544.00 L 191.00,589.00 L 164.00,627.00 L 131.00,679.00 L 101.00,734.00 L 83.00,772.00 L 83.00,775.00 L 71.00,800.00 L 71.00,803.00 L 56.00,840.00 L 53.00,853.00 L 47.00,866.00 L 38.00,902.00 L 35.00,908.00 L 35.00,914.00 L 32.00,920.00 L 29.00,939.00 L 26.00,946.00 L 26.00,953.00 L 23.00,961.00 L 23.00,969.00 L 21.00,974.00 L 16.00,1015.00 L 14.00,1021.00 L 8.00,1099.00 L 8.00,2141.00 L 14.00,2220.00 L 17.00,2233.00 L 20.00,2264.00 L 26.00,2289.00 L 26.00,2296.00 L 29.00,2304.00 L 29.00,2311.00 L 32.00,2318.00 L 32.00,2324.00 L 34.00,2327.00 L 35.00,2336.00 L 40.00,2350.00 L 41.00,2359.00 L 44.00,2365.00 L 44.00,2369.00 L 50.00,2384.00 L 50.00,2388.00 L 56.00,2406.00 L 59.00,2411.00 L 68.00,2440.00 L 77.00,2459.00 L 78.00,2465.00 L 86.00,2481.00 L 86.00,2484.00 L 89.00,2488.00 L 89.00,2491.00 L 92.00,2495.00 L 92.00,2498.00 L 107.00,2526.00 L 107.00,2529.00 L 138.00,2585.00 L 149.00,2601.00 L 152.00,2608.00 L 191.00,2665.00 L 245.00,2731.00 L 318.00,2804.00 L 388.00,2861.00 L 462.00,2911.00 L 507.00,2936.00 L 510.00,2939.00 L 557.00,2963.00 L 566.00,2966.00 L 583.00,2975.00 L 593.00,2978.00 L 597.00,2981.00 L 600.00,2981.00 L 604.00,2984.00 L 607.00,2984.00 L 640.00,2998.00 L 715.00,3023.00 L 720.00,3023.00 L 726.00,3026.00 L 731.00,3026.00 L 738.00,3029.00 L 774.00,3038.00 L 779.00,3038.00 L 802.00,3044.00 L 809.00,3044.00 L 818.00,3047.00 L 826.00,3047.00 L 859.00,3053.00 L 870.00,3053.00 L 887.00,3056.00 L 901.00,3056.00 L 924.00,3059.00 L 1003.00,3060.00 L 1034.00,3059.00 L 1114.00,3050.00 L 1142.00,3044.00 L 1149.00,3044.00 L 1171.00,3038.00 L 1177.00,3038.00 L 1184.00,3035.00 L 1189.00,3035.00 L 1196.00,3032.00 L 1202.00,3032.00 L 1208.00,3029.00 L 1213.00,3029.00 L 1240.00,3020.00 L 1245.00,3020.00 L 1290.00,3005.00 L 1295.00,3002.00 L 1322.00,2993.00 L 1334.00,2987.00 L 1337.00,2987.00 L 1348.00,2981.00 L 1351.00,2981.00 L 1399.00,2957.00 L 1402.00,2957.00 L 1405.00,2954.00 L 1441.00,2936.00 L 1479.00,2912.00 L 1481.00,2912.00 L 1542.00,2870.00 L 1584.00,2837.00 L 1626.00,2800.00 L 1681.00,2744.00 L 1726.00,2690.00 L 1759.00,2644.00 L 1801.00,2577.00 L 1804.00,2569.00 L 1807.00,2566.00 L 1831.00,2519.00 L 1834.00,2510.00 L 1837.00,2506.00 L 1837.00,2503.00 L 1849.00,2479.00 L 1849.00,2475.00 L 1852.00,2471.00 L 1861.00,2445.00 L 1864.00,2441.00 L 1864.00,2437.00 L 1867.00,2433.00 L 1867.00,2429.00 L 1876.00,2406.00 L 1876.00,2402.00 L 1882.00,2387.00 L 1882.00,2383.00 L 1890.00,2359.00 L 1891.00,2351.00 L 1894.00,2345.00 L 1894.00,2340.00 L 1900.00,2319.00 L 1900.00,2313.00 L 1903.00,2306.00 L 1903.00,2299.00 L 1906.00,2291.00 L 1909.00,2267.00 L 1912.00,2257.00 L 1912.00,2249.00 L 1915.00,2237.00 L 1915.00,2227.00 L 1918.00,2212.00 L 1918.00,2198.00 L 1921.00,2175.00 L 1922.00,1104.00 L 1918.00,1033.00 L 1915.00,1019.00 L 1915.00,1009.00 L 1912.00,999.00 L 1912.00,990.00 L 1909.00,980.00 L 1909.00,972.00 L 1906.00,963.00 L 1906.00,956.00 L 1903.00,948.00 L 1903.00,942.00 L 1900.00,934.00 L 1897.00,915.00 L 1894.00,909.00 L 1894.00,904.00 L 1891.00,898.00 L 1885.00,872.00 L 1864.00,812.00 L 1861.00,808.00 L 1855.00,790.00 L 1831.00,737.00 L 1792.00,666.00 L 1750.00,603.00 L 1728.00,573.00 L 1696.00,534.00 L 1669.00,504.00 L 1610.00,447.00 L 1561.00,407.00 L 1503.00,366.00 L 1459.00,340.00 L 1410.00,315.00 L 1354.00,291.00 L 1309.00,276.00 L 1297.00,270.00 L 1288.00,260.00 L 1285.00,250.00 L 1285.00,241.00 L 1282.00,234.00 L 1282.00,228.00 L 1270.00,191.00 L 1258.00,165.00 L 1246.00,145.00 L 1219.00,111.00 L 1201.00,93.00 L 1172.00,70.00 L 1147.00,54.00 L 1124.00,42.00 L 1121.00,42.00 L 1096.00,30.00 L 1092.00,30.00 L 1078.00,24.00 L 1027.00,12.00 L 1016.00,12.00 L 1000.00,9.00 Z"/>
    <circle id="hole-cut" cx="967.272" cy="229.975" r="109.500"/>
  </g>
</svg>
