<?xml version="1.0" encoding="UTF-8" standalone="no"?>
<svg xmlns="http://www.w3.org/2000/svg"
     xmlns:inkscape="http://www.inkscape.org/namespaces/inkscape"
     width="69.796mm" height="70.000mm"
     viewBox="0 0 1024 1027" style="background:#ffffff">
  <title>pidan magnet sample kazhdyy shag tebya</title>
  <desc>Red CUT layer: outer silhouette (magnet, no hole).</desc>
  <g id="CUT" inkscape:groupmode="layer" inkscape:label="CUT"
     fill="none" stroke="#ff0000" stroke-width="1.467"
     vector-effect="non-scaling-stroke">
    <path id="outer-cut" d="M 231.00,155.00 L 222.00,164.00 L 204.00,198.00 L 201.00,200.00 L 194.00,217.00 L 153.00,293.00 L 22.00,548.00 L 13.00,569.00 L 11.00,570.00 L 12.00,574.00 L 9.00,578.00 L 10.00,583.00 L 8.00,591.00 L 8.00,615.00 L 13.00,640.00 L 24.00,665.00 L 34.00,679.00 L 46.00,691.00 L 46.00,695.00 L 44.00,697.00 L 33.00,701.00 L 22.00,710.00 L 15.00,721.00 L 12.00,732.00 L 12.00,957.00 L 15.00,969.00 L 21.00,979.00 L 35.00,991.00 L 54.00,996.00 L 119.00,995.00 L 129.00,990.00 L 150.00,996.00 L 298.00,996.00 L 306.00,995.00 L 323.00,988.00 L 331.00,993.00 L 344.00,996.00 L 383.00,996.00 L 387.00,999.00 L 392.00,1008.00 L 404.00,1018.00 L 490.00,1018.00 L 512.00,995.00 L 522.00,997.00 L 527.00,1005.00 L 541.00,1018.00 L 628.00,1018.00 L 650.00,995.00 L 695.00,995.00 L 714.00,985.00 L 728.00,994.00 L 743.00,996.00 L 877.00,996.00 L 884.00,995.00 L 895.00,990.00 L 906.00,995.00 L 963.00,996.00 L 982.00,993.00 L 997.00,983.00 L 1003.00,975.00 L 1008.00,961.00 L 1008.00,729.00 L 1000.00,711.00 L 990.00,702.00 L 979.00,697.00 L 978.00,691.00 L 998.00,664.00 L 1009.00,638.00 L 1013.00,622.00 L 1015.00,603.00 L 1013.00,572.00 L 1005.00,547.00 L 898.00,334.00 L 889.00,323.00 L 874.00,312.00 L 802.00,181.00 L 793.00,172.00 L 779.00,166.00 L 763.00,166.00 L 750.00,171.00 L 735.00,184.00 L 731.00,194.00 L 715.00,218.00 L 707.00,226.00 L 707.00,229.00 L 701.00,239.00 L 696.00,243.00 L 694.00,242.00 L 671.00,201.00 L 665.00,186.00 L 662.00,184.00 L 642.00,148.00 L 641.00,142.00 L 635.00,135.00 L 618.00,103.00 L 607.00,92.00 L 605.00,93.00 L 595.00,89.00 L 584.00,88.00 L 578.00,81.00 L 545.00,23.00 L 534.00,14.00 L 517.00,8.00 L 495.00,10.00 L 479.00,19.00 L 469.00,31.00 L 451.00,63.00 L 447.00,66.00 L 444.00,75.00 L 433.00,93.00 L 425.00,98.00 L 417.00,99.00 L 409.00,103.00 L 399.00,112.00 L 393.00,120.00 L 388.00,133.00 L 383.00,138.00 L 382.00,144.00 L 366.00,173.00 L 361.00,178.00 L 357.00,189.00 L 353.00,192.00 L 352.00,198.00 L 347.00,207.00 L 343.00,210.00 L 343.00,214.00 L 334.00,229.00 L 330.00,230.00 L 327.00,228.00 L 291.00,168.00 L 280.00,155.00 L 265.00,148.00 L 253.00,148.00 L 250.00,146.00 Z"/>
  </g>
</svg>
