<?xml version="1.0" encoding="UTF-8" standalone="no"?>
<svg xmlns="http://www.w3.org/2000/svg"
     xmlns:inkscape="http://www.inkscape.org/namespaces/inkscape"
     width="46.417mm" height="70.000mm"
     viewBox="0 0 681 1027" style="background:#ffffff">
  <title>pidan 6 voskhozhdeniy laser</title>
  <desc>Red CUT layer: outer profile and hole. Black ENGRAVE layer: engraving.</desc>
  <g id="ENGRAVE" inkscape:groupmode="layer" inkscape:label="ENGRAVE"
     fill="#000000" stroke="none" fill-rule="evenodd">
    <path d="M 370.00,914.00 L 368.00,917.00 L 366.00,925.00 L 363.00,930.00 L 347.00,931.00 L 347.00,932.00 L 360.00,942.00 L 357.00,951.00 L 356.00,958.00 L 369.00,949.00 L 371.00,949.00 L 374.00,952.00 L 384.00,958.00 L 383.00,952.00 L 380.00,944.00 L 380.00,941.00 L 385.00,938.00 L 393.00,931.00 L 377.00,930.00 L 375.00,928.00 L 375.00,926.00 L 373.00,923.00 Z M 285.00,931.00 L 299.00,942.00 L 294.00,958.00 L 297.00,957.00 L 308.00,949.00 L 311.00,950.00 L 317.00,955.00 L 323.00,958.00 L 320.00,949.00 L 320.00,946.00 L 318.00,942.00 L 332.00,931.00 L 315.00,930.00 L 309.00,914.00 L 308.00,914.00 L 308.00,916.00 L 306.00,919.00 L 305.00,924.00 L 302.00,930.00 Z M 407.00,922.00 L 410.00,926.00 L 420.00,933.00 L 418.00,939.00 L 418.00,942.00 L 416.00,946.00 L 416.00,949.00 L 419.00,948.00 L 430.00,940.00 L 442.00,949.00 L 444.00,949.00 L 442.00,943.00 L 442.00,940.00 L 440.00,936.00 L 440.00,933.00 L 453.00,923.00 L 452.00,922.00 L 437.00,922.00 L 435.00,920.00 L 435.00,918.00 L 433.00,915.00 L 430.00,906.00 L 429.00,906.00 L 428.00,911.00 L 423.00,922.00 Z M 272.00,922.00 L 257.00,922.00 L 255.00,920.00 L 252.00,910.00 L 250.00,906.00 L 249.00,906.00 L 242.00,922.00 L 227.00,922.00 L 226.00,923.00 L 239.00,933.00 L 239.00,936.00 L 237.00,940.00 L 237.00,943.00 L 235.00,949.00 L 238.00,948.00 L 249.00,940.00 L 263.00,949.00 L 263.00,946.00 L 262.00,945.00 L 262.00,942.00 L 259.00,933.00 L 270.00,925.00 Z M 486.00,890.00 L 483.00,896.00 L 482.00,901.00 L 479.00,905.00 L 465.00,905.00 L 464.00,906.00 L 476.00,916.00 L 475.00,923.00 L 472.00,931.00 L 474.00,931.00 L 485.00,923.00 L 487.00,923.00 L 499.00,931.00 L 499.00,928.00 L 495.00,916.00 L 507.00,907.00 L 506.00,905.00 L 492.00,905.00 Z M 192.00,890.00 L 189.00,900.00 L 186.00,905.00 L 172.00,905.00 L 175.00,909.00 L 183.00,915.00 L 180.00,930.00 L 192.00,922.00 L 206.00,930.00 L 202.00,918.00 L 202.00,915.00 L 213.00,907.00 L 214.00,905.00 L 199.00,905.00 L 195.00,897.00 L 193.00,890.00 Z M 160.00,868.00 L 161.00,867.00 L 170.00,867.00 L 174.00,870.00 L 174.00,874.00 L 171.00,877.00 L 161.00,877.00 L 160.00,876.00 Z M 381.00,854.00 L 390.00,854.00 L 391.00,855.00 L 391.00,876.00 L 390.00,877.00 L 378.00,877.00 L 377.00,876.00 L 380.00,867.00 L 380.00,855.00 Z M 160.00,855.00 L 161.00,854.00 L 171.00,854.00 L 173.00,856.00 L 173.00,859.00 L 170.00,862.00 L 161.00,862.00 L 160.00,861.00 Z M 304.00,853.00 L 308.00,853.00 L 310.00,854.00 L 313.00,857.00 L 315.00,861.00 L 315.00,869.00 L 314.00,872.00 L 309.00,877.00 L 302.00,877.00 L 298.00,873.00 L 296.00,868.00 L 296.00,863.00 L 298.00,857.00 L 301.00,854.00 Z M 200.00,853.00 L 204.00,853.00 L 208.00,855.00 L 211.00,859.00 L 211.00,864.00 L 212.00,865.00 L 211.00,866.00 L 211.00,871.00 L 210.00,873.00 L 205.00,877.00 L 199.00,877.00 L 197.00,876.00 L 193.00,870.00 L 193.00,861.00 L 194.00,858.00 Z M 507.00,849.00 L 508.00,850.00 L 507.00,881.00 L 508.00,882.00 L 514.00,882.00 L 527.00,861.00 L 528.00,862.00 L 528.00,882.00 L 534.00,882.00 L 534.00,849.00 L 527.00,849.00 L 526.00,852.00 L 518.00,864.00 L 516.00,869.00 L 514.00,871.00 L 513.00,870.00 L 513.00,849.00 Z M 472.00,849.00 L 473.00,850.00 L 473.00,857.00 L 472.00,858.00 L 472.00,881.00 L 473.00,882.00 L 479.00,882.00 L 492.00,861.00 L 493.00,862.00 L 493.00,882.00 L 499.00,882.00 L 499.00,849.00 L 493.00,849.00 L 491.00,851.00 L 490.00,854.00 L 479.00,871.00 L 478.00,870.00 L 479.00,868.00 L 479.00,849.00 Z M 437.00,849.00 L 437.00,853.00 L 438.00,854.00 L 437.00,881.00 L 438.00,882.00 L 444.00,882.00 L 444.00,868.00 L 445.00,867.00 L 457.00,867.00 L 458.00,868.00 L 458.00,882.00 L 464.00,882.00 L 464.00,849.00 L 458.00,849.00 L 458.00,861.00 L 457.00,862.00 L 445.00,862.00 L 444.00,861.00 L 444.00,849.00 Z M 406.00,849.00 L 406.00,882.00 L 431.00,882.00 L 431.00,877.00 L 414.00,877.00 L 412.00,871.00 L 414.00,867.00 L 429.00,867.00 L 429.00,862.00 L 414.00,862.00 L 412.00,859.00 L 412.00,855.00 L 413.00,854.00 L 430.00,854.00 L 430.00,849.00 Z M 374.00,849.00 L 374.00,867.00 L 373.00,868.00 L 372.00,875.00 L 370.00,877.00 L 368.00,877.00 L 368.00,889.00 L 373.00,889.00 L 373.00,883.00 L 374.00,882.00 L 394.00,882.00 L 395.00,883.00 L 395.00,889.00 L 400.00,889.00 L 401.00,887.00 L 400.00,886.00 L 401.00,884.00 L 400.00,879.00 L 401.00,878.00 L 397.00,876.00 L 397.00,849.00 Z M 257.00,849.00 L 266.00,862.00 L 267.00,865.00 L 256.00,882.00 L 264.00,882.00 L 265.00,879.00 L 271.00,871.00 L 279.00,882.00 L 286.00,882.00 L 283.00,876.00 L 275.00,865.00 L 285.00,849.00 L 278.00,849.00 L 271.00,858.00 L 265.00,849.00 Z M 153.00,849.00 L 153.00,881.00 L 154.00,882.00 L 174.00,882.00 L 179.00,879.00 L 181.00,875.00 L 181.00,870.00 L 180.00,868.00 L 175.00,864.00 L 177.00,863.00 L 179.00,860.00 L 179.00,854.00 L 178.00,852.00 L 174.00,849.00 Z M 365.00,848.00 L 363.00,849.00 L 359.00,849.00 L 356.00,852.00 L 353.00,860.00 L 350.00,863.00 L 349.00,862.00 L 349.00,849.00 L 342.00,849.00 L 342.00,862.00 L 341.00,863.00 L 338.00,860.00 L 335.00,852.00 L 332.00,849.00 L 326.00,849.00 L 326.00,853.00 L 329.00,853.00 L 331.00,855.00 L 332.00,859.00 L 336.00,865.00 L 332.00,868.00 L 325.00,882.00 L 332.00,882.00 L 338.00,870.00 L 341.00,867.00 L 342.00,868.00 L 342.00,882.00 L 349.00,882.00 L 349.00,868.00 L 350.00,867.00 L 353.00,870.00 L 359.00,882.00 L 366.00,882.00 L 358.00,867.00 L 355.00,865.00 L 355.00,864.00 L 357.00,863.00 L 360.00,855.00 L 362.00,853.00 L 365.00,853.00 Z M 298.00,849.00 L 293.00,853.00 L 290.00,859.00 L 290.00,871.00 L 292.00,876.00 L 299.00,882.00 L 302.00,883.00 L 312.00,882.00 L 320.00,875.00 L 321.00,869.00 L 322.00,868.00 L 321.00,858.00 L 319.00,854.00 L 313.00,849.00 L 310.00,848.00 L 301.00,848.00 Z M 243.00,848.00 L 234.00,848.00 L 230.00,850.00 L 226.00,854.00 L 224.00,858.00 L 224.00,861.00 L 223.00,862.00 L 224.00,873.00 L 227.00,878.00 L 233.00,882.00 L 237.00,882.00 L 238.00,883.00 L 239.00,882.00 L 246.00,881.00 L 251.00,876.00 L 252.00,872.00 L 246.00,870.00 L 245.00,873.00 L 241.00,877.00 L 236.00,877.00 L 234.00,876.00 L 230.00,871.00 L 230.00,860.00 L 233.00,855.00 L 237.00,853.00 L 241.00,853.00 L 245.00,856.00 L 246.00,859.00 L 248.00,858.00 L 252.00,858.00 L 251.00,854.00 L 246.00,849.00 Z M 197.00,848.00 L 193.00,850.00 L 189.00,854.00 L 186.00,861.00 L 186.00,869.00 L 189.00,877.00 L 192.00,880.00 L 199.00,883.00 L 205.00,883.00 L 212.00,880.00 L 217.00,874.00 L 218.00,871.00 L 218.00,860.00 L 216.00,855.00 L 211.00,850.00 L 207.00,848.00 Z M 513.00,840.00 L 514.00,843.00 L 518.00,846.00 L 524.00,846.00 L 527.00,844.00 L 528.00,842.00 L 528.00,840.00 L 525.00,840.00 L 522.00,843.00 L 520.00,843.00 L 518.00,842.00 L 517.00,840.00 Z M 338.00,807.00 L 346.00,808.00 L 350.00,812.00 L 351.00,815.00 L 351.00,821.00 L 350.00,823.00 L 344.00,828.00 L 338.00,828.00 L 334.00,826.00 L 331.00,822.00 L 331.00,818.00 L 330.00,817.00 L 331.00,816.00 L 331.00,813.00 L 334.00,809.00 Z M 334.00,774.00 L 327.00,777.00 L 323.00,780.00 L 319.00,785.00 L 314.00,800.00 L 314.00,814.00 L 315.00,815.00 L 316.00,823.00 L 319.00,829.00 L 326.00,836.00 L 333.00,839.00 L 344.00,840.00 L 356.00,836.00 L 363.00,829.00 L 366.00,821.00 L 365.00,810.00 L 362.00,804.00 L 358.00,800.00 L 347.00,796.00 L 338.00,797.00 L 334.00,799.00 L 331.00,802.00 L 330.00,801.00 L 330.00,795.00 L 331.00,792.00 L 335.00,787.00 L 339.00,785.00 L 344.00,785.00 L 346.00,786.00 L 349.00,789.00 L 350.00,792.00 L 351.00,791.00 L 364.00,791.00 L 365.00,790.00 L 363.00,784.00 L 356.00,777.00 L 349.00,774.00 Z M 54.00,766.00 L 55.00,765.00 L 627.00,765.00 L 628.00,768.00 L 625.00,777.00 L 623.00,780.00 L 621.00,788.00 L 615.00,800.00 L 615.00,802.00 L 602.00,828.00 L 585.00,855.00 L 569.00,876.00 L 556.00,890.00 L 556.00,891.00 L 539.00,908.00 L 514.00,929.00 L 492.00,944.00 L 477.00,952.00 L 475.00,954.00 L 447.00,967.00 L 442.00,968.00 L 439.00,970.00 L 421.00,976.00 L 418.00,976.00 L 417.00,977.00 L 414.00,977.00 L 410.00,979.00 L 402.00,980.00 L 397.00,982.00 L 392.00,982.00 L 391.00,983.00 L 386.00,983.00 L 385.00,984.00 L 380.00,984.00 L 379.00,985.00 L 358.00,986.00 L 357.00,987.00 L 327.00,987.00 L 326.00,986.00 L 314.00,986.00 L 313.00,985.00 L 299.00,984.00 L 298.00,983.00 L 279.00,980.00 L 267.00,976.00 L 264.00,976.00 L 246.00,970.00 L 243.00,968.00 L 238.00,967.00 L 224.00,960.00 L 222.00,960.00 L 199.00,948.00 L 194.00,944.00 L 183.00,938.00 L 156.00,918.00 L 128.00,892.00 L 128.00,891.00 L 117.00,880.00 L 98.00,856.00 L 83.00,833.00 L 66.00,800.00 L 66.00,798.00 L 62.00,791.00 L 58.00,778.00 L 56.00,775.00 L 56.00,772.00 Z M 301.00,758.00 L 313.00,745.00 L 321.00,733.00 L 328.00,725.00 L 335.00,721.00 L 348.00,719.00 L 356.00,715.00 L 358.00,713.00 L 364.00,712.00 L 365.00,711.00 L 372.00,711.00 L 373.00,712.00 L 377.00,712.00 L 383.00,714.00 L 389.00,714.00 L 415.00,726.00 L 439.00,749.00 L 445.00,757.00 L 444.00,759.00 L 302.00,759.00 Z M 436.00,738.00 L 444.00,729.00 L 460.00,721.00 L 470.00,713.00 L 477.00,710.00 L 484.00,710.00 L 493.00,713.00 L 514.00,724.00 L 531.00,729.00 L 550.00,739.00 L 553.00,739.00 L 562.00,743.00 L 564.00,743.00 L 572.00,748.00 L 584.00,758.00 L 583.00,759.00 L 453.00,759.00 L 444.00,746.00 Z M 397.00,711.00 L 398.00,710.00 L 399.00,711.00 L 398.00,712.00 Z M 457.00,715.00 L 456.00,717.00 L 453.00,718.00 L 451.00,720.00 L 440.00,725.00 L 432.00,733.00 L 431.00,733.00 L 418.00,721.00 L 427.00,718.00 L 430.00,716.00 L 436.00,709.00 L 441.00,711.00 L 440.00,713.00 L 440.00,716.00 L 441.00,717.00 L 445.00,717.00 L 448.00,713.00 L 456.00,714.00 Z M 391.00,708.00 L 393.00,706.00 L 396.00,705.00 L 398.00,708.00 L 398.00,710.00 L 395.00,711.00 L 392.00,710.00 Z M 414.00,697.00 L 416.00,695.00 L 429.00,697.00 L 430.00,698.00 L 433.00,698.00 L 434.00,699.00 L 437.00,699.00 L 438.00,700.00 L 441.00,700.00 L 442.00,701.00 L 456.00,704.00 L 458.00,706.00 L 458.00,708.00 L 457.00,709.00 L 453.00,709.00 L 452.00,708.00 L 449.00,708.00 L 448.00,707.00 L 445.00,707.00 L 444.00,706.00 L 441.00,706.00 L 440.00,705.00 L 437.00,705.00 L 428.00,702.00 L 419.00,701.00 L 416.00,700.00 Z M 417.00,681.00 L 426.00,684.00 L 430.00,688.00 L 432.00,692.00 L 431.00,693.00 L 428.00,693.00 L 427.00,692.00 L 424.00,692.00 L 421.00,689.00 L 415.00,689.00 L 410.00,693.00 L 409.00,695.00 L 409.00,703.00 L 413.00,707.00 L 415.00,708.00 L 419.00,708.00 L 422.00,706.00 L 425.00,706.00 L 429.00,708.00 L 425.00,713.00 L 417.00,716.00 L 408.00,713.00 L 404.00,709.00 L 401.00,703.00 L 401.00,694.00 L 404.00,688.00 L 412.00,682.00 L 416.00,682.00 Z M 374.00,704.00 L 373.00,706.00 L 363.00,706.00 L 362.00,707.00 L 359.00,707.00 L 356.00,709.00 L 352.00,710.00 L 346.00,714.00 L 333.00,716.00 L 327.00,719.00 L 320.00,725.00 L 310.00,740.00 L 293.00,759.00 L 210.00,759.00 L 209.00,757.00 L 223.00,743.00 L 237.00,732.00 L 244.00,725.00 L 252.00,713.00 L 281.00,695.00 L 284.00,694.00 L 286.00,692.00 L 289.00,691.00 L 291.00,689.00 L 294.00,688.00 L 296.00,686.00 L 299.00,685.00 L 301.00,683.00 L 312.00,677.00 L 318.00,675.00 L 326.00,675.00 L 331.00,677.00 L 345.00,687.00 L 353.00,691.00 L 365.00,695.00 L 368.00,697.00 Z M 390.00,677.00 L 394.00,674.00 L 401.00,673.00 L 405.00,675.00 L 408.00,678.00 L 399.00,686.00 Z M 475.00,703.00 L 481.00,695.00 L 498.00,678.00 L 502.00,672.00 L 508.00,666.00 L 519.00,662.00 L 532.00,661.00 L 533.00,660.00 L 551.00,660.00 L 560.00,664.00 L 562.00,664.00 L 574.00,670.00 L 577.00,670.00 L 581.00,672.00 L 585.00,672.00 L 590.00,674.00 L 601.00,675.00 L 607.00,677.00 L 620.00,686.00 L 639.00,704.00 L 638.00,724.00 L 637.00,725.00 L 635.00,741.00 L 634.00,742.00 L 631.00,757.00 L 629.00,759.00 L 594.00,759.00 L 576.00,744.00 L 564.00,737.00 L 550.00,733.00 L 533.00,724.00 L 514.00,718.00 L 490.00,706.00 L 487.00,706.00 L 486.00,705.00 L 476.00,705.00 Z M 338.00,674.00 L 348.00,663.00 L 352.00,661.00 L 359.00,660.00 L 360.00,661.00 L 366.00,662.00 L 374.00,667.00 L 384.00,679.00 L 396.00,691.00 L 396.00,697.00 L 386.00,705.00 L 382.00,706.00 L 377.00,699.00 L 369.00,691.00 L 351.00,684.00 L 339.00,676.00 Z M 297.00,677.00 L 297.00,679.00 L 293.00,682.00 L 290.00,683.00 L 288.00,685.00 L 285.00,686.00 L 283.00,688.00 L 280.00,689.00 L 270.00,696.00 L 251.00,707.00 L 244.00,714.00 L 240.00,721.00 L 233.00,728.00 L 219.00,739.00 L 200.00,759.00 L 68.00,759.00 L 67.00,758.00 L 83.00,738.00 L 98.00,726.00 L 126.00,697.00 L 134.00,693.00 L 136.00,693.00 L 147.00,687.00 L 149.00,687.00 L 185.00,669.00 L 197.00,661.00 L 203.00,659.00 L 212.00,659.00 L 213.00,658.00 L 216.00,658.00 L 222.00,656.00 L 225.00,654.00 L 236.00,653.00 L 237.00,654.00 L 247.00,655.00 L 252.00,657.00 L 257.00,657.00 L 258.00,658.00 L 272.00,660.00 L 273.00,661.00 L 276.00,661.00 L 282.00,663.00 L 288.00,667.00 Z M 77.00,648.00 L 89.00,655.00 L 103.00,659.00 L 114.00,665.00 L 124.00,672.00 L 133.00,681.00 L 136.00,686.00 L 122.00,693.00 L 117.00,697.00 L 112.00,704.00 L 94.00,722.00 L 88.00,726.00 L 78.00,735.00 L 75.00,740.00 L 59.00,759.00 L 52.00,759.00 L 50.00,756.00 L 49.00,748.00 L 48.00,747.00 L 48.00,744.00 L 45.00,735.00 L 45.00,730.00 L 44.00,729.00 L 44.00,724.00 L 43.00,723.00 L 43.00,717.00 L 42.00,716.00 L 42.00,708.00 L 41.00,707.00 L 41.00,678.00 L 61.00,662.00 L 73.00,649.00 Z M 244.00,647.00 L 255.00,634.00 L 260.00,631.00 L 269.00,630.00 L 270.00,631.00 L 277.00,632.00 L 282.00,635.00 L 288.00,637.00 L 292.00,637.00 L 293.00,638.00 L 297.00,638.00 L 298.00,639.00 L 303.00,639.00 L 304.00,640.00 L 309.00,640.00 L 310.00,641.00 L 317.00,642.00 L 324.00,646.00 L 339.00,664.00 L 332.00,672.00 L 328.00,670.00 L 316.00,670.00 L 310.00,672.00 L 305.00,675.00 L 303.00,675.00 L 295.00,666.00 L 284.00,658.00 L 275.00,655.00 L 271.00,655.00 L 265.00,653.00 L 260.00,653.00 L 259.00,652.00 L 245.00,650.00 Z M 615.00,630.00 L 610.00,636.00 L 610.00,639.00 L 609.00,640.00 L 609.00,652.00 L 612.00,659.00 L 616.00,663.00 L 621.00,663.00 L 625.00,659.00 L 627.00,655.00 L 627.00,651.00 L 628.00,650.00 L 627.00,640.00 L 624.00,633.00 L 620.00,630.00 Z M 603.00,627.00 L 599.00,636.00 L 598.00,648.00 L 599.00,649.00 L 599.00,655.00 L 601.00,661.00 L 605.00,667.00 L 604.00,670.00 L 603.00,669.00 L 594.00,669.00 L 593.00,668.00 L 580.00,666.00 L 553.00,655.00 L 548.00,655.00 L 547.00,654.00 L 538.00,654.00 L 537.00,655.00 L 528.00,655.00 L 527.00,656.00 L 524.00,655.00 L 524.00,651.00 L 528.00,644.00 L 533.00,640.00 L 539.00,639.00 L 540.00,638.00 L 544.00,638.00 L 545.00,637.00 L 549.00,637.00 L 550.00,636.00 L 555.00,636.00 L 556.00,635.00 L 564.00,634.00 L 565.00,633.00 L 570.00,633.00 L 571.00,632.00 L 590.00,629.00 L 591.00,628.00 L 596.00,628.00 L 602.00,626.00 Z M 617.00,623.00 L 623.00,625.00 L 628.00,630.00 L 632.00,640.00 L 632.00,654.00 L 631.00,655.00 L 631.00,658.00 L 628.00,664.00 L 624.00,668.00 L 620.00,670.00 L 617.00,670.00 L 613.00,668.00 L 608.00,663.00 L 604.00,654.00 L 604.00,648.00 L 603.00,647.00 L 604.00,638.00 L 606.00,632.00 L 612.00,625.00 Z M 291.00,606.00 L 293.00,605.00 L 299.00,608.00 L 307.00,610.00 L 310.00,612.00 L 323.00,616.00 L 331.00,620.00 L 339.00,622.00 L 342.00,624.00 L 347.00,625.00 L 350.00,627.00 L 374.00,635.00 L 390.00,642.00 L 406.00,647.00 L 414.00,651.00 L 422.00,653.00 L 425.00,655.00 L 430.00,656.00 L 438.00,660.00 L 443.00,661.00 L 446.00,663.00 L 461.00,668.00 L 463.00,670.00 L 463.00,701.00 L 462.00,702.00 L 458.00,699.00 L 438.00,694.00 L 435.00,686.00 L 430.00,680.00 L 424.00,677.00 L 414.00,676.00 L 410.00,672.00 L 402.00,668.00 L 396.00,668.00 L 386.00,672.00 L 374.00,660.00 L 361.00,655.00 L 353.00,655.00 L 345.00,659.00 L 343.00,659.00 L 324.00,639.00 L 312.00,635.00 L 307.00,635.00 L 306.00,634.00 L 301.00,634.00 L 300.00,633.00 L 292.00,632.00 L 291.00,631.00 L 291.00,620.00 L 290.00,619.00 Z M 225.00,648.00 L 215.00,653.00 L 201.00,654.00 L 195.00,656.00 L 181.00,665.00 L 142.00,684.00 L 136.00,676.00 L 125.00,666.00 L 113.00,658.00 L 105.00,654.00 L 99.00,652.00 L 96.00,652.00 L 89.00,649.00 L 87.00,647.00 L 79.00,643.00 L 78.00,641.00 L 97.00,626.00 L 108.00,619.00 L 110.00,619.00 L 115.00,616.00 L 121.00,614.00 L 124.00,614.00 L 144.00,607.00 L 150.00,607.00 L 151.00,606.00 L 165.00,606.00 L 166.00,605.00 L 177.00,605.00 L 182.00,607.00 L 188.00,612.00 L 194.00,615.00 L 211.00,627.00 L 219.00,635.00 L 224.00,644.00 Z M 562.00,615.00 L 568.00,611.00 L 570.00,611.00 L 586.00,603.00 L 591.00,599.00 L 600.00,595.00 L 606.00,595.00 L 612.00,598.00 L 614.00,598.00 L 618.00,601.00 L 625.00,604.00 L 627.00,606.00 L 634.00,609.00 L 639.00,613.00 L 639.00,694.00 L 638.00,695.00 L 616.00,676.00 L 617.00,675.00 L 624.00,674.00 L 629.00,671.00 L 633.00,666.00 L 636.00,658.00 L 636.00,654.00 L 637.00,653.00 L 637.00,641.00 L 636.00,640.00 L 635.00,633.00 L 630.00,624.00 L 623.00,619.00 L 615.00,618.00 L 609.00,620.00 L 604.00,620.00 L 603.00,621.00 L 599.00,621.00 L 598.00,622.00 L 594.00,622.00 L 593.00,623.00 L 589.00,623.00 L 588.00,624.00 L 584.00,624.00 L 583.00,625.00 L 579.00,625.00 L 578.00,626.00 L 574.00,626.00 L 573.00,627.00 L 568.00,627.00 L 567.00,628.00 L 554.00,630.00 L 553.00,629.00 L 556.00,623.00 Z M 285.00,607.00 L 285.00,628.00 L 284.00,629.00 L 275.00,626.00 L 271.00,626.00 L 270.00,625.00 L 263.00,625.00 L 262.00,626.00 L 256.00,627.00 L 247.00,634.00 L 237.00,648.00 L 232.00,648.00 L 225.00,634.00 L 221.00,629.00 L 212.00,621.00 L 203.00,615.00 L 203.00,614.00 L 213.00,605.00 L 221.00,600.00 L 227.00,598.00 L 230.00,598.00 L 234.00,596.00 L 237.00,596.00 L 241.00,594.00 L 244.00,594.00 L 248.00,592.00 L 255.00,591.00 L 256.00,590.00 L 262.00,590.00 L 265.00,591.00 Z M 252.00,585.00 L 243.00,589.00 L 240.00,589.00 L 236.00,591.00 L 233.00,591.00 L 232.00,592.00 L 229.00,592.00 L 220.00,595.00 L 212.00,599.00 L 198.00,611.00 L 180.00,600.00 L 160.00,600.00 L 159.00,601.00 L 147.00,601.00 L 146.00,602.00 L 139.00,603.00 L 135.00,598.00 L 135.00,596.00 L 146.00,585.00 L 162.00,577.00 L 190.00,577.00 L 191.00,576.00 L 198.00,576.00 L 199.00,575.00 L 205.00,575.00 L 206.00,574.00 L 212.00,574.00 L 213.00,573.00 L 228.00,573.00 L 240.00,579.00 L 242.00,579.00 Z M 130.00,600.00 L 132.00,603.00 L 131.00,606.00 L 108.00,613.00 L 102.00,616.00 L 85.00,628.00 L 68.00,644.00 L 67.00,648.00 L 57.00,658.00 L 42.00,670.00 L 41.00,669.00 L 41.00,589.00 L 43.00,587.00 L 63.00,576.00 L 69.00,574.00 L 74.00,574.00 L 75.00,573.00 L 84.00,573.00 L 89.00,575.00 L 102.00,585.00 L 125.00,595.00 Z M 572.00,569.00 L 573.00,570.00 L 573.00,602.00 L 571.00,604.00 L 564.00,607.00 L 556.00,613.00 L 545.00,632.00 L 542.00,632.00 L 537.00,634.00 L 533.00,634.00 L 527.00,637.00 L 523.00,641.00 L 522.00,644.00 L 520.00,646.00 L 517.00,656.00 L 504.00,662.00 L 497.00,669.00 L 493.00,675.00 L 476.00,692.00 L 469.00,701.00 L 468.00,700.00 L 468.00,669.00 L 488.00,650.00 L 489.00,650.00 Z M 569.00,564.00 L 465.00,664.00 L 459.00,661.00 L 449.00,658.00 L 446.00,656.00 L 438.00,654.00 L 435.00,652.00 L 411.00,644.00 L 395.00,637.00 L 387.00,635.00 L 384.00,633.00 L 379.00,632.00 L 376.00,630.00 L 371.00,629.00 L 368.00,627.00 L 363.00,626.00 L 360.00,624.00 L 339.00,617.00 L 336.00,615.00 L 328.00,613.00 L 320.00,609.00 L 301.00,603.00 L 296.00,600.00 L 301.00,596.00 L 321.00,585.00 L 322.00,586.00 L 322.00,589.00 L 321.00,590.00 L 321.00,595.00 L 322.00,596.00 L 429.00,631.00 L 432.00,633.00 L 456.00,641.00 L 464.00,642.00 L 534.00,578.00 L 543.00,571.00 L 549.00,565.00 L 549.00,560.00 L 550.00,559.00 L 565.00,562.00 Z M 639.00,555.00 L 639.00,604.00 L 638.00,605.00 L 633.00,603.00 L 624.00,597.00 L 609.00,590.00 L 597.00,590.00 L 590.00,593.00 L 580.00,600.00 L 579.00,599.00 L 579.00,578.00 L 588.00,564.00 L 593.00,559.00 L 600.00,556.00 L 604.00,556.00 L 608.00,554.00 L 611.00,554.00 L 623.00,550.00 L 631.00,551.00 Z M 335.00,538.00 L 325.00,576.00 L 323.00,578.00 L 318.00,580.00 L 316.00,582.00 L 311.00,584.00 L 304.00,589.00 L 289.00,597.00 L 286.00,600.00 L 281.00,597.00 L 269.00,587.00 L 260.00,584.00 L 250.00,577.00 L 251.00,574.00 L 257.00,568.00 L 265.00,563.00 L 265.00,560.00 L 264.00,559.00 L 266.00,556.00 L 274.00,549.00 L 291.00,544.00 L 299.00,540.00 L 305.00,535.00 L 311.00,533.00 L 323.00,533.00 L 324.00,534.00 L 328.00,534.00 L 333.00,536.00 Z M 361.00,529.00 L 362.00,528.00 L 364.00,529.00 L 368.00,529.00 L 369.00,530.00 L 377.00,531.00 L 386.00,534.00 L 390.00,534.00 L 391.00,535.00 L 399.00,536.00 L 408.00,539.00 L 412.00,539.00 L 413.00,540.00 L 417.00,540.00 L 422.00,542.00 L 426.00,542.00 L 427.00,543.00 L 431.00,543.00 L 432.00,544.00 L 438.00,545.00 L 439.00,546.00 L 439.00,551.00 L 438.00,552.00 L 438.00,558.00 L 437.00,559.00 L 437.00,565.00 L 436.00,566.00 L 434.00,586.00 L 433.00,587.00 L 429.00,587.00 L 421.00,584.00 L 406.00,581.00 L 402.00,579.00 L 399.00,579.00 L 398.00,578.00 L 375.00,573.00 L 371.00,571.00 L 367.00,571.00 L 363.00,569.00 L 355.00,568.00 L 353.00,565.00 L 354.00,564.00 L 354.00,560.00 L 355.00,559.00 L 355.00,555.00 L 357.00,550.00 L 357.00,546.00 L 359.00,541.00 L 359.00,537.00 L 360.00,536.00 Z M 103.00,578.00 L 108.00,568.00 L 114.00,561.00 L 135.00,544.00 L 151.00,528.00 L 157.00,525.00 L 167.00,525.00 L 176.00,529.00 L 178.00,529.00 L 183.00,532.00 L 185.00,532.00 L 190.00,535.00 L 192.00,535.00 L 206.00,542.00 L 221.00,545.00 L 228.00,549.00 L 239.00,558.00 L 248.00,568.00 L 248.00,570.00 L 244.00,574.00 L 242.00,574.00 L 235.00,570.00 L 229.00,568.00 L 225.00,568.00 L 224.00,567.00 L 211.00,568.00 L 210.00,569.00 L 204.00,569.00 L 203.00,570.00 L 197.00,570.00 L 196.00,571.00 L 189.00,571.00 L 188.00,572.00 L 161.00,572.00 L 155.00,574.00 L 144.00,580.00 L 131.00,592.00 L 129.00,592.00 L 121.00,587.00 L 114.00,585.00 L 108.00,582.00 Z M 357.00,524.00 L 356.00,530.00 L 355.00,531.00 L 355.00,535.00 L 354.00,536.00 L 354.00,540.00 L 352.00,545.00 L 352.00,549.00 L 350.00,554.00 L 348.00,568.00 L 347.00,569.00 L 348.00,571.00 L 354.00,573.00 L 357.00,573.00 L 358.00,574.00 L 361.00,574.00 L 362.00,575.00 L 365.00,575.00 L 366.00,576.00 L 369.00,576.00 L 370.00,577.00 L 373.00,577.00 L 374.00,578.00 L 377.00,578.00 L 378.00,579.00 L 381.00,579.00 L 382.00,580.00 L 385.00,580.00 L 389.00,582.00 L 412.00,587.00 L 416.00,589.00 L 419.00,589.00 L 420.00,590.00 L 423.00,590.00 L 432.00,593.00 L 437.00,593.00 L 438.00,592.00 L 439.00,581.00 L 440.00,580.00 L 440.00,574.00 L 441.00,573.00 L 441.00,567.00 L 442.00,566.00 L 443.00,554.00 L 444.00,553.00 L 444.00,547.00 L 445.00,546.00 L 444.00,541.00 L 434.00,539.00 L 433.00,538.00 L 424.00,537.00 L 419.00,535.00 L 410.00,534.00 L 409.00,533.00 L 406.00,533.00 L 401.00,531.00 L 397.00,531.00 L 392.00,529.00 L 388.00,529.00 L 387.00,528.00 L 383.00,528.00 L 378.00,526.00 L 374.00,526.00 L 369.00,524.00 L 365.00,524.00 L 360.00,522.00 Z M 299.00,530.00 L 300.00,532.00 L 290.00,539.00 L 275.00,543.00 L 266.00,548.00 L 261.00,554.00 L 259.00,559.00 L 254.00,564.00 L 252.00,564.00 L 236.00,548.00 L 241.00,542.00 L 243.00,538.00 L 247.00,534.00 L 254.00,532.00 L 262.00,528.00 L 264.00,528.00 L 273.00,523.00 L 279.00,521.00 L 287.00,521.00 L 290.00,522.00 Z M 542.00,527.00 L 544.00,525.00 L 556.00,521.00 L 559.00,521.00 L 564.00,519.00 L 568.00,519.00 L 569.00,518.00 L 573.00,518.00 L 574.00,517.00 L 578.00,517.00 L 586.00,520.00 L 611.00,538.00 L 617.00,544.00 L 617.00,545.00 L 615.00,547.00 L 609.00,549.00 L 606.00,549.00 L 605.00,550.00 L 602.00,550.00 L 601.00,551.00 L 598.00,551.00 L 590.00,554.00 L 584.00,560.00 L 581.00,566.00 L 579.00,567.00 L 578.00,566.00 L 578.00,562.00 L 575.00,559.00 L 568.00,558.00 L 559.00,555.00 L 555.00,555.00 L 547.00,552.00 Z M 144.00,526.00 L 144.00,527.00 L 130.00,541.00 L 109.00,558.00 L 104.00,564.00 L 103.00,567.00 L 98.00,574.00 L 86.00,568.00 L 72.00,568.00 L 71.00,569.00 L 61.00,571.00 L 47.00,578.00 L 43.00,581.00 L 41.00,580.00 L 41.00,531.00 L 46.00,526.00 L 52.00,522.00 L 62.00,517.00 L 80.00,511.00 L 83.00,511.00 L 92.00,508.00 L 106.00,508.00 L 121.00,513.00 L 134.00,519.00 L 136.00,519.00 Z M 119.00,506.00 L 125.00,500.00 L 129.00,498.00 L 136.00,497.00 L 137.00,496.00 L 141.00,496.00 L 142.00,495.00 L 146.00,495.00 L 147.00,494.00 L 158.00,494.00 L 164.00,496.00 L 169.00,499.00 L 171.00,499.00 L 179.00,504.00 L 173.00,511.00 L 171.00,516.00 L 168.00,520.00 L 160.00,519.00 L 151.00,522.00 L 148.00,522.00 L 143.00,517.00 L 133.00,512.00 L 123.00,509.00 Z M 174.00,521.00 L 179.00,512.00 L 186.00,506.00 L 209.00,496.00 L 218.00,493.00 L 221.00,493.00 L 222.00,492.00 L 229.00,492.00 L 230.00,493.00 L 237.00,494.00 L 246.00,497.00 L 249.00,499.00 L 251.00,499.00 L 256.00,502.00 L 258.00,502.00 L 265.00,506.00 L 274.00,516.00 L 273.00,518.00 L 271.00,518.00 L 264.00,522.00 L 262.00,522.00 L 255.00,526.00 L 250.00,527.00 L 242.00,531.00 L 235.00,541.00 L 231.00,545.00 L 223.00,540.00 L 220.00,540.00 L 219.00,539.00 L 216.00,539.00 L 215.00,538.00 L 212.00,538.00 L 206.00,536.00 L 192.00,529.00 L 190.00,529.00 L 185.00,526.00 L 178.00,524.00 Z M 529.00,470.00 L 537.00,466.00 L 543.00,465.00 L 557.00,473.00 L 563.00,473.00 L 580.00,466.00 L 583.00,466.00 L 604.00,477.00 L 606.00,479.00 L 615.00,483.00 L 617.00,485.00 L 624.00,488.00 L 626.00,490.00 L 638.00,495.00 L 639.00,496.00 L 639.00,547.00 L 637.00,548.00 L 629.00,545.00 L 624.00,545.00 L 621.00,540.00 L 615.00,534.00 L 596.00,521.00 L 593.00,518.00 L 581.00,512.00 L 566.00,513.00 L 565.00,514.00 L 550.00,517.00 L 544.00,520.00 L 541.00,520.00 L 539.00,517.00 L 539.00,514.00 L 537.00,509.00 L 537.00,505.00 L 536.00,504.00 L 535.00,496.00 L 532.00,487.00 L 532.00,483.00 L 530.00,478.00 Z M 186.00,455.00 L 185.00,454.00 L 182.00,454.00 L 176.00,457.00 L 163.00,461.00 L 160.00,463.00 L 155.00,464.00 L 152.00,466.00 L 145.00,468.00 L 145.00,473.00 L 150.00,472.00 L 153.00,470.00 L 161.00,468.00 L 164.00,466.00 L 185.00,459.00 L 186.00,458.00 Z M 87.00,449.00 L 86.00,452.00 L 87.00,454.00 L 91.00,455.00 L 104.00,462.00 L 106.00,462.00 L 115.00,467.00 L 117.00,467.00 L 126.00,472.00 L 130.00,473.00 L 130.00,468.00 L 129.00,467.00 L 125.00,466.00 L 103.00,455.00 L 101.00,455.00 L 92.00,450.00 Z M 409.00,428.00 L 403.00,433.00 L 402.00,436.00 L 402.00,441.00 L 404.00,444.00 L 404.00,446.00 L 398.00,449.00 L 394.00,453.00 L 392.00,458.00 L 392.00,463.00 L 391.00,464.00 L 391.00,469.00 L 390.00,470.00 L 390.00,472.00 L 392.00,474.00 L 392.00,477.00 L 391.00,478.00 L 391.00,483.00 L 390.00,484.00 L 390.00,489.00 L 389.00,490.00 L 389.00,496.00 L 388.00,498.00 L 384.00,501.00 L 384.00,505.00 L 418.00,512.00 L 419.00,511.00 L 419.00,506.00 L 416.00,503.00 L 417.00,502.00 L 418.00,485.00 L 419.00,484.00 L 419.00,480.00 L 422.00,477.00 L 422.00,474.00 L 423.00,473.00 L 424.00,460.00 L 422.00,454.00 L 415.00,448.00 L 419.00,441.00 L 419.00,435.00 L 416.00,430.00 L 412.00,428.00 Z M 408.00,418.00 L 414.00,418.00 L 421.00,421.00 L 427.00,428.00 L 428.00,434.00 L 429.00,435.00 L 429.00,439.00 L 428.00,440.00 L 427.00,446.00 L 433.00,451.00 L 435.00,457.00 L 434.00,471.00 L 433.00,472.00 L 433.00,478.00 L 432.00,479.00 L 432.00,485.00 L 431.00,486.00 L 431.00,492.00 L 430.00,493.00 L 430.00,500.00 L 429.00,501.00 L 429.00,507.00 L 428.00,508.00 L 428.00,515.00 L 426.00,520.00 L 413.00,518.00 L 412.00,517.00 L 408.00,517.00 L 407.00,516.00 L 403.00,516.00 L 402.00,515.00 L 398.00,515.00 L 397.00,514.00 L 393.00,514.00 L 392.00,513.00 L 379.00,511.00 L 374.00,509.00 L 375.00,501.00 L 376.00,500.00 L 377.00,488.00 L 378.00,487.00 L 378.00,482.00 L 379.00,481.00 L 379.00,476.00 L 380.00,475.00 L 380.00,470.00 L 381.00,469.00 L 381.00,463.00 L 382.00,462.00 L 382.00,458.00 L 383.00,457.00 L 384.00,450.00 L 390.00,443.00 L 393.00,442.00 L 393.00,433.00 L 396.00,426.00 L 401.00,421.00 Z M 407.00,413.00 L 399.00,416.00 L 391.00,424.00 L 388.00,432.00 L 388.00,438.00 L 382.00,443.00 L 379.00,448.00 L 378.00,455.00 L 377.00,456.00 L 377.00,462.00 L 376.00,463.00 L 375.00,474.00 L 374.00,475.00 L 374.00,480.00 L 373.00,481.00 L 373.00,486.00 L 372.00,487.00 L 372.00,492.00 L 371.00,493.00 L 371.00,498.00 L 370.00,499.00 L 370.00,504.00 L 369.00,505.00 L 369.00,512.00 L 371.00,514.00 L 377.00,516.00 L 381.00,516.00 L 382.00,517.00 L 396.00,519.00 L 401.00,521.00 L 405.00,521.00 L 406.00,522.00 L 420.00,524.00 L 425.00,526.00 L 429.00,526.00 L 431.00,525.00 L 432.00,523.00 L 432.00,519.00 L 433.00,518.00 L 434.00,503.00 L 435.00,502.00 L 437.00,480.00 L 438.00,479.00 L 439.00,465.00 L 440.00,464.00 L 440.00,456.00 L 437.00,448.00 L 433.00,444.00 L 434.00,441.00 L 434.00,433.00 L 433.00,432.00 L 432.00,426.00 L 430.00,423.00 L 421.00,415.00 L 415.00,413.00 Z M 143.00,411.00 L 143.00,416.00 L 157.00,423.00 L 159.00,423.00 L 170.00,417.00 L 169.00,413.00 L 167.00,413.00 L 159.00,417.00 L 156.00,417.00 Z M 518.00,423.00 L 520.00,421.00 L 564.00,399.00 L 568.00,398.00 L 637.00,432.00 L 639.00,434.00 L 639.00,488.00 L 637.00,489.00 L 610.00,475.00 L 608.00,473.00 L 599.00,469.00 L 597.00,467.00 L 584.00,461.00 L 578.00,461.00 L 561.00,468.00 L 559.00,468.00 L 544.00,460.00 L 539.00,460.00 L 530.00,464.00 L 528.00,464.00 L 526.00,461.00 L 526.00,458.00 L 524.00,453.00 L 524.00,449.00 L 523.00,448.00 L 523.00,445.00 L 520.00,436.00 Z M 107.00,393.00 L 106.00,398.00 L 127.00,408.00 L 127.00,403.00 Z M 183.00,405.00 L 183.00,408.00 L 184.00,410.00 L 219.00,394.00 L 225.00,395.00 L 241.00,403.00 L 244.00,403.00 L 250.00,401.00 L 263.00,395.00 L 269.00,395.00 L 282.00,401.00 L 294.00,405.00 L 299.00,408.00 L 306.00,410.00 L 318.00,416.00 L 329.00,424.00 L 348.00,433.00 L 350.00,433.00 L 359.00,437.00 L 360.00,434.00 L 359.00,432.00 L 332.00,420.00 L 320.00,411.00 L 312.00,407.00 L 310.00,407.00 L 305.00,404.00 L 293.00,400.00 L 288.00,397.00 L 286.00,397.00 L 283.00,395.00 L 281.00,395.00 L 278.00,393.00 L 266.00,389.00 L 265.00,390.00 L 261.00,390.00 L 246.00,397.00 L 240.00,397.00 L 223.00,389.00 L 217.00,389.00 Z M 157.00,385.00 L 154.00,384.00 L 143.00,390.00 L 141.00,392.00 L 142.00,396.00 L 156.00,389.00 L 158.00,387.00 Z M 508.00,382.00 L 519.00,376.00 L 521.00,376.00 L 528.00,372.00 L 530.00,372.00 L 561.00,357.00 L 569.00,356.00 L 586.00,365.00 L 601.00,368.00 L 606.00,371.00 L 608.00,371.00 L 611.00,373.00 L 613.00,373.00 L 616.00,375.00 L 618.00,375.00 L 621.00,377.00 L 623.00,377.00 L 626.00,379.00 L 628.00,379.00 L 637.00,383.00 L 639.00,385.00 L 639.00,426.00 L 638.00,427.00 L 570.00,393.00 L 562.00,394.00 L 517.00,417.00 L 515.00,414.00 Z M 396.00,339.00 L 406.00,340.00 L 407.00,341.00 L 415.00,341.00 L 416.00,342.00 L 425.00,342.00 L 426.00,343.00 L 442.00,344.00 L 443.00,345.00 L 451.00,345.00 L 452.00,346.00 L 452.00,351.00 L 453.00,352.00 L 453.00,379.00 L 454.00,380.00 L 454.00,406.00 L 455.00,407.00 L 455.00,437.00 L 456.00,438.00 L 456.00,470.00 L 457.00,471.00 L 457.00,499.00 L 458.00,500.00 L 458.00,531.00 L 459.00,532.00 L 460.00,592.00 L 461.00,593.00 L 461.00,626.00 L 462.00,627.00 L 462.00,635.00 L 461.00,636.00 L 330.00,593.00 L 327.00,591.00 L 328.00,584.00 L 330.00,580.00 L 333.00,566.00 L 335.00,562.00 L 338.00,548.00 L 340.00,544.00 L 342.00,533.00 L 345.00,526.00 L 346.00,519.00 L 348.00,515.00 L 349.00,508.00 L 355.00,490.00 L 357.00,479.00 L 359.00,475.00 L 359.00,472.00 L 361.00,468.00 L 361.00,465.00 L 364.00,457.00 L 365.00,450.00 L 369.00,439.00 L 369.00,436.00 L 373.00,424.00 L 374.00,417.00 L 376.00,413.00 L 379.00,399.00 L 381.00,395.00 L 381.00,392.00 L 385.00,380.00 L 385.00,377.00 L 386.00,376.00 L 386.00,373.00 L 387.00,372.00 L 387.00,369.00 L 388.00,368.00 L 388.00,365.00 L 389.00,364.00 L 394.00,341.00 Z M 488.00,337.00 L 491.00,338.00 L 493.00,341.00 L 493.00,345.00 L 496.00,354.00 L 496.00,358.00 L 497.00,359.00 L 497.00,362.00 L 498.00,363.00 L 498.00,366.00 L 501.00,375.00 L 501.00,379.00 L 504.00,388.00 L 504.00,392.00 L 507.00,401.00 L 507.00,405.00 L 508.00,406.00 L 508.00,409.00 L 509.00,410.00 L 509.00,413.00 L 512.00,422.00 L 512.00,426.00 L 513.00,427.00 L 513.00,430.00 L 514.00,431.00 L 514.00,434.00 L 517.00,443.00 L 517.00,447.00 L 520.00,456.00 L 522.00,469.00 L 523.00,470.00 L 523.00,473.00 L 526.00,482.00 L 526.00,486.00 L 527.00,487.00 L 527.00,490.00 L 529.00,495.00 L 529.00,499.00 L 532.00,508.00 L 534.00,521.00 L 535.00,522.00 L 535.00,525.00 L 537.00,530.00 L 537.00,534.00 L 540.00,543.00 L 541.00,552.00 L 544.00,561.00 L 541.00,565.00 L 522.00,581.00 L 481.00,619.00 L 470.00,628.00 L 469.00,630.00 L 467.00,629.00 L 467.00,610.00 L 466.00,609.00 L 466.00,574.00 L 465.00,573.00 L 465.00,544.00 L 464.00,543.00 L 464.00,512.00 L 463.00,511.00 L 463.00,483.00 L 462.00,482.00 L 462.00,451.00 L 461.00,450.00 L 461.00,424.00 L 460.00,423.00 L 460.00,395.00 L 459.00,394.00 L 458.00,346.00 L 460.00,344.00 L 463.00,344.00 L 464.00,343.00 L 467.00,343.00 L 468.00,342.00 L 471.00,342.00 L 475.00,340.00 L 478.00,340.00 L 482.00,338.00 Z M 381.00,352.00 L 371.00,347.00 L 369.00,345.00 L 348.00,335.00 L 346.00,333.00 L 340.00,332.00 L 339.00,331.00 L 327.00,335.00 L 310.00,343.00 L 305.00,343.00 L 279.00,333.00 L 270.00,333.00 L 250.00,343.00 L 248.00,343.00 L 217.00,359.00 L 215.00,359.00 L 203.00,365.00 L 201.00,367.00 L 199.00,367.00 L 197.00,369.00 L 194.00,370.00 L 182.00,370.00 L 171.00,375.00 L 170.00,377.00 L 171.00,379.00 L 173.00,380.00 L 183.00,375.00 L 196.00,375.00 L 217.00,364.00 L 219.00,364.00 L 221.00,362.00 L 229.00,358.00 L 231.00,358.00 L 254.00,346.00 L 256.00,346.00 L 272.00,338.00 L 277.00,338.00 L 289.00,342.00 L 292.00,344.00 L 297.00,345.00 L 300.00,347.00 L 308.00,349.00 L 309.00,348.00 L 312.00,348.00 L 336.00,337.00 L 342.00,337.00 L 378.00,356.00 L 380.00,356.00 Z M 126.00,326.00 L 127.00,327.00 L 127.00,333.00 L 128.00,334.00 L 128.00,352.00 L 129.00,353.00 L 129.00,372.00 L 130.00,373.00 L 130.00,391.00 L 131.00,392.00 L 131.00,413.00 L 132.00,414.00 L 132.00,431.00 L 133.00,432.00 L 133.00,451.00 L 134.00,452.00 L 135.00,490.00 L 133.00,492.00 L 130.00,492.00 L 121.00,496.00 L 114.00,504.00 L 109.00,504.00 L 103.00,502.00 L 96.00,502.00 L 95.00,503.00 L 90.00,503.00 L 89.00,504.00 L 78.00,506.00 L 63.00,511.00 L 62.00,508.00 L 64.00,505.00 L 66.00,499.00 L 66.00,496.00 L 68.00,493.00 L 76.00,467.00 L 78.00,464.00 L 81.00,453.00 L 83.00,450.00 L 103.00,389.00 L 105.00,386.00 L 118.00,346.00 L 120.00,343.00 L 122.00,335.00 Z M 135.00,323.00 L 137.00,325.00 L 137.00,327.00 L 140.00,332.00 L 142.00,339.00 L 148.00,351.00 L 148.00,353.00 L 153.00,363.00 L 153.00,365.00 L 155.00,368.00 L 159.00,380.00 L 165.00,392.00 L 165.00,394.00 L 167.00,397.00 L 171.00,409.00 L 177.00,421.00 L 179.00,428.00 L 182.00,433.00 L 183.00,438.00 L 186.00,443.00 L 186.00,445.00 L 188.00,448.00 L 192.00,460.00 L 195.00,465.00 L 195.00,467.00 L 205.00,490.00 L 204.00,493.00 L 202.00,493.00 L 186.00,500.00 L 184.00,500.00 L 168.00,492.00 L 159.00,489.00 L 145.00,489.00 L 143.00,490.00 L 141.00,488.00 L 141.00,468.00 L 140.00,467.00 L 140.00,448.00 L 139.00,447.00 L 139.00,428.00 L 138.00,427.00 L 138.00,407.00 L 137.00,406.00 L 137.00,387.00 L 136.00,386.00 L 136.00,366.00 L 135.00,365.00 L 135.00,343.00 L 134.00,342.00 L 134.00,324.00 Z M 474.00,325.00 L 474.00,334.00 L 472.00,336.00 L 469.00,336.00 L 457.00,340.00 L 449.00,340.00 L 448.00,339.00 L 439.00,339.00 L 438.00,338.00 L 412.00,336.00 L 409.00,334.00 L 411.00,328.00 L 452.00,331.00 L 455.00,328.00 L 455.00,319.00 L 457.00,317.00 L 462.00,316.00 L 464.00,314.00 Z M 122.00,308.00 L 124.00,306.00 L 129.00,306.00 L 134.00,308.00 L 136.00,310.00 L 137.00,313.00 L 136.00,315.00 L 133.00,317.00 L 127.00,317.00 L 122.00,312.00 Z M 432.00,288.00 L 435.00,289.00 L 439.00,293.00 L 439.00,298.00 L 436.00,302.00 L 433.00,303.00 L 429.00,302.00 L 426.00,298.00 L 426.00,293.00 L 427.00,291.00 Z M 429.00,283.00 L 425.00,285.00 L 422.00,288.00 L 420.00,292.00 L 420.00,299.00 L 421.00,302.00 L 426.00,307.00 L 428.00,308.00 L 436.00,308.00 L 440.00,306.00 L 443.00,303.00 L 445.00,299.00 L 445.00,292.00 L 443.00,288.00 L 440.00,285.00 L 436.00,283.00 Z M 128.00,278.00 L 134.00,283.00 L 134.00,286.00 L 132.00,290.00 L 127.00,284.00 L 127.00,279.00 Z M 121.00,274.00 L 122.00,276.00 L 119.00,282.00 L 101.00,304.00 L 97.00,310.00 L 89.00,327.00 L 80.00,336.00 L 79.00,335.00 L 80.00,326.00 L 78.00,324.00 L 72.00,324.00 L 71.00,323.00 L 79.00,315.00 L 82.00,308.00 L 82.00,299.00 L 102.00,289.00 L 112.00,282.00 L 120.00,274.00 Z M 504.00,264.00 L 507.00,267.00 L 511.00,275.00 L 512.00,281.00 L 500.00,287.00 L 493.00,289.00 L 486.00,274.00 L 484.00,272.00 L 486.00,270.00 L 488.00,270.00 L 501.00,264.00 Z M 333.00,272.00 L 338.00,266.00 L 345.00,262.00 L 348.00,262.00 L 349.00,261.00 L 350.00,262.00 L 369.00,265.00 L 374.00,267.00 L 383.00,268.00 L 388.00,270.00 L 402.00,272.00 L 405.00,273.00 L 406.00,275.00 L 395.00,287.00 L 393.00,293.00 L 393.00,298.00 L 394.00,299.00 L 391.00,300.00 L 379.00,296.00 L 376.00,296.00 L 374.00,294.00 L 374.00,290.00 L 373.00,288.00 L 335.00,278.00 L 333.00,275.00 Z M 326.00,263.00 L 319.00,260.00 L 309.00,259.00 L 308.00,258.00 L 294.00,258.00 L 293.00,257.00 L 290.00,258.00 L 278.00,258.00 L 277.00,259.00 L 271.00,259.00 L 270.00,260.00 L 262.00,261.00 L 255.00,264.00 L 252.00,264.00 L 242.00,269.00 L 240.00,269.00 L 229.00,275.00 L 217.00,283.00 L 205.00,293.00 L 205.00,294.00 L 199.00,299.00 L 183.00,320.00 L 173.00,340.00 L 170.00,349.00 L 170.00,352.00 L 169.00,353.00 L 169.00,359.00 L 172.00,360.00 L 179.00,339.00 L 185.00,327.00 L 195.00,312.00 L 213.00,293.00 L 229.00,281.00 L 251.00,270.00 L 257.00,268.00 L 260.00,268.00 L 264.00,266.00 L 267.00,266.00 L 268.00,265.00 L 272.00,265.00 L 273.00,264.00 L 279.00,264.00 L 280.00,263.00 L 306.00,263.00 L 307.00,264.00 L 313.00,264.00 L 314.00,265.00 L 318.00,265.00 L 324.00,267.00 Z M 124.00,250.00 L 127.00,252.00 L 137.00,263.00 L 137.00,267.00 L 138.00,268.00 L 138.00,276.00 L 137.00,277.00 L 131.00,273.00 L 123.00,264.00 L 123.00,251.00 Z M 526.00,270.00 L 526.00,274.00 L 523.00,277.00 L 518.00,278.00 L 517.00,277.00 L 517.00,274.00 L 511.00,262.00 L 508.00,258.00 L 505.00,257.00 L 500.00,258.00 L 497.00,260.00 L 495.00,260.00 L 492.00,262.00 L 490.00,262.00 L 487.00,264.00 L 478.00,267.00 L 477.00,268.00 L 477.00,271.00 L 487.00,290.00 L 487.00,298.00 L 484.00,302.00 L 471.00,308.00 L 469.00,307.00 L 473.00,302.00 L 476.00,296.00 L 476.00,289.00 L 470.00,277.00 L 468.00,275.00 L 465.00,275.00 L 464.00,276.00 L 464.00,280.00 L 466.00,282.00 L 470.00,290.00 L 470.00,295.00 L 463.00,306.00 L 458.00,311.00 L 451.00,312.00 L 449.00,314.00 L 449.00,324.00 L 448.00,325.00 L 445.00,325.00 L 444.00,324.00 L 433.00,324.00 L 432.00,323.00 L 412.00,322.00 L 411.00,321.00 L 411.00,311.00 L 408.00,309.00 L 402.00,308.00 L 400.00,306.00 L 399.00,298.00 L 400.00,297.00 L 400.00,291.00 L 401.00,289.00 L 410.00,280.00 L 410.00,279.00 L 421.00,269.00 L 424.00,269.00 L 430.00,273.00 L 434.00,273.00 L 440.00,269.00 L 445.00,264.00 L 447.00,263.00 L 451.00,263.00 L 453.00,264.00 L 458.00,270.00 L 462.00,270.00 L 463.00,269.00 L 463.00,265.00 L 465.00,263.00 L 483.00,257.00 L 486.00,255.00 L 491.00,254.00 L 494.00,252.00 L 499.00,251.00 L 502.00,249.00 L 508.00,247.00 L 511.00,247.00 L 515.00,250.00 Z M 596.00,242.00 L 595.00,240.00 L 590.00,239.00 L 587.00,241.00 L 574.00,245.00 L 566.00,249.00 L 553.00,253.00 L 550.00,256.00 L 550.00,259.00 L 552.00,262.00 L 557.00,262.00 L 563.00,259.00 L 571.00,257.00 L 574.00,255.00 L 579.00,254.00 L 582.00,252.00 L 594.00,248.00 L 596.00,246.00 Z M 610.00,246.00 L 610.00,249.00 L 607.00,253.00 L 589.00,259.00 L 586.00,261.00 L 568.00,267.00 L 563.00,270.00 L 558.00,271.00 L 555.00,273.00 L 550.00,274.00 L 544.00,277.00 L 539.00,277.00 L 532.00,274.00 L 532.00,268.00 L 525.00,256.00 L 525.00,254.00 L 528.00,252.00 L 556.00,243.00 L 559.00,241.00 L 570.00,238.00 L 573.00,236.00 L 578.00,235.00 L 581.00,233.00 L 593.00,229.00 L 599.00,229.00 L 603.00,232.00 Z M 423.00,226.00 L 423.00,229.00 L 424.00,230.00 L 461.00,230.00 L 462.00,229.00 L 462.00,226.00 L 461.00,225.00 L 424.00,225.00 Z M 222.00,227.00 L 223.00,230.00 L 261.00,230.00 L 262.00,229.00 L 262.00,226.00 L 261.00,225.00 L 224.00,225.00 Z M 385.00,219.00 L 385.00,241.00 L 390.00,241.00 L 390.00,230.00 L 391.00,229.00 L 396.00,239.00 L 400.00,239.00 L 402.00,232.00 L 404.00,229.00 L 405.00,230.00 L 405.00,241.00 L 410.00,241.00 L 410.00,219.00 L 404.00,219.00 L 403.00,220.00 L 398.00,232.00 L 396.00,230.00 L 396.00,228.00 L 393.00,223.00 L 392.00,219.00 Z M 284.00,210.00 L 277.00,215.00 L 277.00,220.00 L 279.00,220.00 L 283.00,217.00 L 284.00,218.00 L 284.00,241.00 L 290.00,241.00 L 290.00,210.00 Z M 354.00,211.00 L 351.00,216.00 L 351.00,219.00 L 357.00,219.00 L 357.00,217.00 L 360.00,214.00 L 364.00,215.00 L 366.00,219.00 L 365.00,222.00 L 353.00,234.00 L 351.00,237.00 L 351.00,241.00 L 372.00,241.00 L 372.00,236.00 L 361.00,236.00 L 360.00,235.00 L 371.00,223.00 L 372.00,216.00 L 370.00,212.00 L 365.00,209.00 L 358.00,209.00 Z M 332.00,209.00 L 329.00,210.00 L 326.00,213.00 L 325.00,218.00 L 330.00,218.00 L 333.00,214.00 L 336.00,214.00 L 339.00,217.00 L 339.00,219.00 L 337.00,222.00 L 332.00,223.00 L 332.00,227.00 L 336.00,227.00 L 340.00,231.00 L 340.00,233.00 L 337.00,236.00 L 334.00,237.00 L 332.00,236.00 L 329.00,232.00 L 324.00,233.00 L 324.00,236.00 L 326.00,239.00 L 329.00,241.00 L 337.00,242.00 L 342.00,240.00 L 345.00,237.00 L 346.00,234.00 L 345.00,228.00 L 341.00,224.00 L 343.00,223.00 L 345.00,219.00 L 345.00,216.00 L 344.00,213.00 L 342.00,211.00 L 338.00,209.00 Z M 305.00,209.00 L 302.00,210.00 L 299.00,213.00 L 298.00,218.00 L 304.00,218.00 L 305.00,215.00 L 309.00,214.00 L 312.00,217.00 L 312.00,220.00 L 310.00,222.00 L 306.00,223.00 L 306.00,227.00 L 311.00,228.00 L 313.00,231.00 L 313.00,233.00 L 309.00,237.00 L 306.00,236.00 L 303.00,232.00 L 298.00,232.00 L 297.00,233.00 L 299.00,238.00 L 301.00,240.00 L 306.00,242.00 L 310.00,242.00 L 315.00,240.00 L 319.00,235.00 L 319.00,229.00 L 318.00,227.00 L 315.00,225.00 L 318.00,220.00 L 318.00,215.00 L 314.00,210.00 L 311.00,209.00 Z M 407.00,153.00 L 409.00,159.00 L 410.00,169.00 L 409.00,170.00 L 403.00,170.00 L 401.00,169.00 L 400.00,167.00 Z M 455.00,149.00 L 441.00,194.00 L 448.00,197.00 L 451.00,197.00 L 456.00,182.00 L 456.00,179.00 L 457.00,178.00 L 465.00,181.00 L 468.00,181.00 L 471.00,183.00 L 471.00,185.00 L 468.00,192.00 L 466.00,202.00 L 475.00,205.00 L 480.00,192.00 L 480.00,189.00 L 484.00,179.00 L 484.00,176.00 L 488.00,166.00 L 488.00,163.00 L 490.00,160.00 L 488.00,158.00 L 485.00,158.00 L 480.00,156.00 L 478.00,160.00 L 478.00,163.00 L 475.00,172.00 L 473.00,174.00 L 460.00,169.00 L 465.00,151.00 Z M 228.00,149.00 L 225.00,149.00 L 218.00,152.00 L 215.00,152.00 L 193.00,160.00 L 208.00,205.00 L 217.00,202.00 L 217.00,199.00 L 212.00,186.00 L 212.00,183.00 L 206.00,167.00 L 207.00,164.00 L 213.00,162.00 L 216.00,162.00 L 220.00,160.00 L 221.00,161.00 L 223.00,167.00 L 223.00,170.00 L 232.00,197.00 L 238.00,195.00 L 241.00,195.00 L 242.00,194.00 Z M 341.00,144.00 L 349.00,144.00 L 351.00,146.00 L 351.00,163.00 L 350.00,164.00 L 350.00,173.00 L 349.00,174.00 L 336.00,174.00 L 335.00,173.00 L 337.00,171.00 L 337.00,168.00 L 338.00,167.00 L 338.00,163.00 L 339.00,162.00 L 339.00,151.00 L 340.00,150.00 L 340.00,145.00 Z M 403.00,139.00 L 381.00,183.00 L 381.00,185.00 L 392.00,186.00 L 395.00,179.00 L 397.00,177.00 L 398.00,178.00 L 410.00,179.00 L 412.00,181.00 L 413.00,189.00 L 416.00,190.00 L 422.00,190.00 L 423.00,191.00 L 424.00,190.00 L 423.00,189.00 L 423.00,184.00 L 422.00,183.00 L 421.00,171.00 L 420.00,170.00 L 420.00,165.00 L 418.00,159.00 L 416.00,142.00 L 412.00,140.00 L 406.00,140.00 Z M 294.00,138.00 L 286.00,138.00 L 283.00,140.00 L 280.00,149.00 L 277.00,154.00 L 277.00,156.00 L 271.00,169.00 L 269.00,165.00 L 267.00,143.00 L 266.00,142.00 L 256.00,143.00 L 257.00,152.00 L 258.00,153.00 L 258.00,160.00 L 259.00,161.00 L 259.00,168.00 L 260.00,169.00 L 260.00,176.00 L 261.00,177.00 L 262.00,190.00 L 272.00,189.00 L 277.00,179.00 L 277.00,177.00 L 279.00,174.00 L 279.00,172.00 L 281.00,169.00 L 281.00,167.00 L 284.00,162.00 L 284.00,160.00 L 286.00,158.00 L 287.00,159.00 L 287.00,166.00 L 288.00,167.00 L 288.00,174.00 L 289.00,175.00 L 290.00,186.00 L 300.00,185.00 L 299.00,171.00 L 298.00,170.00 L 298.00,164.00 L 297.00,163.00 L 297.00,157.00 L 296.00,156.00 L 296.00,149.00 L 295.00,148.00 Z M 330.00,135.00 L 329.00,159.00 L 328.00,160.00 L 327.00,168.00 L 325.00,172.00 L 323.00,174.00 L 320.00,174.00 L 320.00,192.00 L 329.00,192.00 L 330.00,191.00 L 330.00,184.00 L 331.00,183.00 L 355.00,183.00 L 356.00,184.00 L 356.00,192.00 L 366.00,192.00 L 366.00,175.00 L 361.00,173.00 L 361.00,135.00 Z M 135.00,79.00 L 128.00,82.00 L 109.00,103.00 L 88.00,131.00 L 73.00,155.00 L 67.00,168.00 L 65.00,170.00 L 65.00,172.00 L 59.00,183.00 L 59.00,185.00 L 53.00,198.00 L 47.00,216.00 L 47.00,219.00 L 45.00,223.00 L 45.00,226.00 L 44.00,227.00 L 44.00,230.00 L 41.00,239.00 L 40.00,248.00 L 39.00,249.00 L 38.00,260.00 L 37.00,261.00 L 36.00,277.00 L 35.00,278.00 L 35.00,293.00 L 34.00,294.00 L 34.00,699.00 L 35.00,700.00 L 35.00,712.00 L 36.00,713.00 L 36.00,720.00 L 37.00,721.00 L 38.00,732.00 L 39.00,733.00 L 40.00,742.00 L 41.00,743.00 L 44.00,758.00 L 46.00,762.00 L 46.00,765.00 L 51.00,780.00 L 53.00,783.00 L 54.00,788.00 L 56.00,791.00 L 56.00,793.00 L 70.00,823.00 L 72.00,825.00 L 75.00,832.00 L 85.00,847.00 L 86.00,850.00 L 102.00,872.00 L 111.00,883.00 L 120.00,892.00 L 120.00,893.00 L 145.00,917.00 L 176.00,941.00 L 179.00,942.00 L 197.00,954.00 L 222.00,967.00 L 224.00,967.00 L 229.00,970.00 L 231.00,970.00 L 244.00,976.00 L 256.00,980.00 L 259.00,980.00 L 266.00,983.00 L 269.00,983.00 L 270.00,984.00 L 273.00,984.00 L 282.00,987.00 L 296.00,989.00 L 297.00,990.00 L 303.00,990.00 L 304.00,991.00 L 322.00,992.00 L 323.00,993.00 L 361.00,993.00 L 362.00,992.00 L 372.00,992.00 L 373.00,991.00 L 381.00,991.00 L 382.00,990.00 L 393.00,989.00 L 394.00,988.00 L 403.00,987.00 L 404.00,986.00 L 423.00,982.00 L 438.00,977.00 L 441.00,975.00 L 449.00,973.00 L 454.00,970.00 L 456.00,970.00 L 465.00,965.00 L 467.00,965.00 L 475.00,961.00 L 477.00,959.00 L 486.00,955.00 L 488.00,953.00 L 496.00,949.00 L 528.00,926.00 L 542.00,913.00 L 543.00,913.00 L 562.00,894.00 L 585.00,866.00 L 607.00,832.00 L 625.00,795.00 L 637.00,759.00 L 637.00,756.00 L 640.00,747.00 L 640.00,743.00 L 641.00,742.00 L 641.00,738.00 L 642.00,737.00 L 643.00,726.00 L 644.00,725.00 L 645.00,705.00 L 646.00,704.00 L 646.00,294.00 L 645.00,293.00 L 645.00,278.00 L 644.00,277.00 L 644.00,268.00 L 643.00,267.00 L 642.00,254.00 L 641.00,253.00 L 639.00,239.00 L 636.00,230.00 L 636.00,226.00 L 631.00,212.00 L 631.00,209.00 L 628.00,200.00 L 626.00,197.00 L 625.00,192.00 L 623.00,189.00 L 623.00,187.00 L 620.00,182.00 L 620.00,180.00 L 615.00,171.00 L 615.00,169.00 L 611.00,161.00 L 609.00,159.00 L 603.00,147.00 L 597.00,139.00 L 592.00,130.00 L 578.00,111.00 L 564.00,94.00 L 551.00,81.00 L 549.00,81.00 L 546.00,79.00 L 537.00,79.00 L 529.00,83.00 L 489.00,123.00 L 482.00,127.00 L 472.00,130.00 L 472.00,131.00 L 475.00,133.00 L 483.00,133.00 L 489.00,131.00 L 491.00,129.00 L 494.00,128.00 L 535.00,87.00 L 537.00,86.00 L 541.00,86.00 L 542.00,85.00 L 547.00,87.00 L 559.00,99.00 L 585.00,132.00 L 601.00,157.00 L 615.00,185.00 L 622.00,206.00 L 624.00,209.00 L 624.00,212.00 L 628.00,222.00 L 628.00,225.00 L 629.00,226.00 L 629.00,229.00 L 631.00,233.00 L 631.00,237.00 L 633.00,242.00 L 635.00,258.00 L 636.00,259.00 L 636.00,264.00 L 637.00,265.00 L 638.00,284.00 L 639.00,285.00 L 639.00,377.00 L 638.00,378.00 L 635.00,376.00 L 633.00,376.00 L 630.00,374.00 L 628.00,374.00 L 599.00,362.00 L 596.00,362.00 L 595.00,361.00 L 592.00,361.00 L 591.00,360.00 L 588.00,360.00 L 568.00,350.00 L 565.00,350.00 L 559.00,352.00 L 550.00,357.00 L 548.00,357.00 L 541.00,361.00 L 539.00,361.00 L 530.00,366.00 L 528.00,366.00 L 515.00,373.00 L 513.00,373.00 L 507.00,376.00 L 505.00,372.00 L 505.00,368.00 L 504.00,367.00 L 504.00,364.00 L 501.00,355.00 L 501.00,351.00 L 500.00,350.00 L 497.00,335.00 L 494.00,333.00 L 490.00,333.00 L 489.00,332.00 L 481.00,332.00 L 479.00,327.00 L 479.00,322.00 L 473.00,315.00 L 474.00,313.00 L 488.00,307.00 L 491.00,304.00 L 493.00,300.00 L 493.00,297.00 L 495.00,295.00 L 499.00,294.00 L 516.00,286.00 L 518.00,286.00 L 527.00,281.00 L 532.00,281.00 L 539.00,284.00 L 544.00,284.00 L 555.00,279.00 L 560.00,278.00 L 563.00,276.00 L 568.00,275.00 L 576.00,271.00 L 581.00,270.00 L 584.00,268.00 L 586.00,268.00 L 589.00,266.00 L 594.00,265.00 L 597.00,263.00 L 599.00,263.00 L 602.00,261.00 L 611.00,258.00 L 614.00,255.00 L 616.00,251.00 L 616.00,244.00 L 608.00,228.00 L 602.00,223.00 L 599.00,222.00 L 590.00,223.00 L 581.00,227.00 L 573.00,229.00 L 570.00,231.00 L 548.00,238.00 L 545.00,240.00 L 534.00,243.00 L 523.00,248.00 L 521.00,248.00 L 519.00,245.00 L 515.00,242.00 L 507.00,241.00 L 498.00,244.00 L 495.00,246.00 L 490.00,247.00 L 487.00,249.00 L 479.00,251.00 L 476.00,253.00 L 464.00,257.00 L 459.00,260.00 L 452.00,257.00 L 446.00,257.00 L 443.00,258.00 L 432.00,267.00 L 425.00,263.00 L 419.00,263.00 L 415.00,265.00 L 412.00,268.00 L 407.00,268.00 L 402.00,266.00 L 398.00,266.00 L 393.00,264.00 L 379.00,262.00 L 378.00,261.00 L 365.00,259.00 L 364.00,258.00 L 356.00,257.00 L 355.00,256.00 L 344.00,256.00 L 341.00,257.00 L 333.00,262.00 L 330.00,265.00 L 327.00,271.00 L 327.00,277.00 L 333.00,284.00 L 347.00,287.00 L 351.00,289.00 L 354.00,289.00 L 358.00,291.00 L 361.00,291.00 L 367.00,293.00 L 369.00,298.00 L 372.00,301.00 L 378.00,303.00 L 381.00,303.00 L 382.00,304.00 L 385.00,304.00 L 389.00,306.00 L 392.00,306.00 L 396.00,312.00 L 405.00,316.00 L 404.00,331.00 L 402.00,333.00 L 393.00,334.00 L 391.00,335.00 L 389.00,338.00 L 389.00,341.00 L 386.00,349.00 L 385.00,356.00 L 383.00,360.00 L 383.00,363.00 L 382.00,364.00 L 382.00,367.00 L 381.00,368.00 L 381.00,371.00 L 380.00,372.00 L 375.00,395.00 L 371.00,406.00 L 370.00,413.00 L 368.00,417.00 L 367.00,424.00 L 363.00,435.00 L 361.00,446.00 L 359.00,450.00 L 357.00,461.00 L 355.00,465.00 L 355.00,468.00 L 353.00,472.00 L 353.00,475.00 L 352.00,476.00 L 352.00,479.00 L 350.00,483.00 L 349.00,489.00 L 348.00,490.00 L 340.00,486.00 L 325.00,482.00 L 319.00,479.00 L 308.00,471.00 L 300.00,467.00 L 282.00,461.00 L 273.00,456.00 L 271.00,456.00 L 264.00,452.00 L 262.00,452.00 L 249.00,445.00 L 247.00,445.00 L 235.00,439.00 L 225.00,439.00 L 216.00,442.00 L 213.00,444.00 L 205.00,446.00 L 200.00,449.00 L 201.00,452.00 L 203.00,453.00 L 209.00,450.00 L 227.00,444.00 L 233.00,444.00 L 243.00,449.00 L 245.00,449.00 L 256.00,455.00 L 258.00,455.00 L 269.00,461.00 L 271.00,461.00 L 280.00,466.00 L 282.00,466.00 L 285.00,468.00 L 303.00,474.00 L 317.00,484.00 L 323.00,487.00 L 326.00,487.00 L 338.00,491.00 L 341.00,493.00 L 343.00,493.00 L 346.00,495.00 L 347.00,497.00 L 346.00,498.00 L 346.00,501.00 L 344.00,505.00 L 343.00,512.00 L 341.00,516.00 L 340.00,523.00 L 337.00,531.00 L 334.00,531.00 L 325.00,528.00 L 309.00,528.00 L 306.00,529.00 L 294.00,518.00 L 286.00,515.00 L 280.00,515.00 L 276.00,509.00 L 266.00,500.00 L 248.00,492.00 L 236.00,488.00 L 233.00,488.00 L 232.00,487.00 L 220.00,487.00 L 215.00,489.00 L 212.00,489.00 L 207.00,479.00 L 207.00,477.00 L 202.00,467.00 L 202.00,465.00 L 200.00,462.00 L 200.00,460.00 L 197.00,455.00 L 197.00,453.00 L 195.00,450.00 L 195.00,448.00 L 193.00,445.00 L 193.00,443.00 L 191.00,440.00 L 187.00,428.00 L 184.00,423.00 L 182.00,416.00 L 174.00,399.00 L 174.00,397.00 L 172.00,394.00 L 168.00,382.00 L 165.00,377.00 L 161.00,365.00 L 158.00,360.00 L 154.00,348.00 L 151.00,343.00 L 147.00,331.00 L 141.00,319.00 L 142.00,316.00 L 142.00,308.00 L 140.00,305.00 L 136.00,303.00 L 133.00,300.00 L 133.00,295.00 L 135.00,294.00 L 146.00,304.00 L 147.00,306.00 L 147.00,311.00 L 148.00,312.00 L 150.00,312.00 L 152.00,310.00 L 152.00,304.00 L 150.00,300.00 L 143.00,293.00 L 142.00,293.00 L 139.00,289.00 L 143.00,279.00 L 143.00,264.00 L 140.00,257.00 L 137.00,253.00 L 133.00,250.00 L 133.00,217.00 L 132.00,215.00 L 130.00,214.00 L 125.00,215.00 L 123.00,219.00 L 123.00,239.00 L 120.00,240.00 L 117.00,244.00 L 117.00,263.00 L 118.00,264.00 L 118.00,268.00 L 117.00,270.00 L 107.00,279.00 L 89.00,290.00 L 87.00,290.00 L 77.00,295.00 L 76.00,309.00 L 66.00,320.00 L 57.00,326.00 L 58.00,328.00 L 61.00,329.00 L 73.00,329.00 L 74.00,330.00 L 72.00,346.00 L 74.00,347.00 L 82.00,342.00 L 93.00,331.00 L 98.00,322.00 L 98.00,320.00 L 105.00,308.00 L 114.00,298.00 L 118.00,292.00 L 122.00,288.00 L 123.00,289.00 L 123.00,299.00 L 117.00,305.00 L 117.00,308.00 L 116.00,309.00 L 116.00,312.00 L 120.00,319.00 L 120.00,321.00 L 113.00,342.00 L 111.00,345.00 L 105.00,365.00 L 103.00,368.00 L 103.00,371.00 L 100.00,380.00 L 98.00,383.00 L 91.00,406.00 L 89.00,409.00 L 77.00,447.00 L 75.00,450.00 L 69.00,470.00 L 67.00,473.00 L 53.00,515.00 L 42.00,522.00 L 41.00,521.00 L 41.00,463.00 L 43.00,461.00 L 57.00,454.00 L 59.00,454.00 L 64.00,451.00 L 71.00,450.00 L 72.00,446.00 L 70.00,445.00 L 63.00,446.00 L 42.00,456.00 L 41.00,455.00 L 41.00,404.00 L 43.00,402.00 L 76.00,386.00 L 81.00,385.00 L 91.00,390.00 L 93.00,385.00 L 90.00,383.00 L 88.00,383.00 L 83.00,380.00 L 77.00,380.00 L 69.00,384.00 L 67.00,384.00 L 42.00,397.00 L 41.00,396.00 L 41.00,284.00 L 42.00,283.00 L 42.00,273.00 L 43.00,272.00 L 43.00,265.00 L 44.00,264.00 L 45.00,253.00 L 46.00,252.00 L 46.00,248.00 L 47.00,247.00 L 47.00,243.00 L 49.00,238.00 L 50.00,230.00 L 63.00,191.00 L 77.00,162.00 L 79.00,160.00 L 81.00,155.00 L 93.00,136.00 L 117.00,104.00 L 124.00,97.00 L 124.00,96.00 L 135.00,86.00 L 143.00,86.00 L 145.00,87.00 L 188.00,129.00 L 198.00,133.00 L 205.00,133.00 L 209.00,131.00 L 209.00,130.00 L 199.00,127.00 L 189.00,121.00 L 150.00,82.00 L 144.00,79.00 Z M 338.00,58.00 L 349.00,59.00 L 357.00,63.00 L 365.00,71.00 L 369.00,80.00 L 369.00,94.00 L 364.00,104.00 L 355.00,112.00 L 348.00,115.00 L 343.00,115.00 L 342.00,116.00 L 334.00,115.00 L 325.00,111.00 L 317.00,103.00 L 313.00,95.00 L 313.00,91.00 L 312.00,90.00 L 313.00,79.00 L 316.00,72.00 L 319.00,68.00 L 328.00,61.00 L 333.00,59.00 L 337.00,59.00 Z M 336.00,50.00 L 322.00,55.00 L 311.00,65.00 L 307.00,72.00 L 305.00,78.00 L 304.00,90.00 L 305.00,91.00 L 306.00,99.00 L 310.00,107.00 L 313.00,111.00 L 321.00,118.00 L 333.00,123.00 L 349.00,123.00 L 355.00,121.00 L 362.00,117.00 L 373.00,105.00 L 377.00,94.00 L 377.00,79.00 L 372.00,67.00 L 363.00,57.00 L 356.00,53.00 L 350.00,51.00 L 347.00,51.00 L 346.00,50.00 Z M 335.00,16.00 L 358.00,17.00 L 359.00,18.00 L 364.00,18.00 L 365.00,19.00 L 369.00,19.00 L 370.00,20.00 L 377.00,21.00 L 386.00,24.00 L 389.00,26.00 L 391.00,26.00 L 412.00,38.00 L 423.00,47.00 L 437.00,63.00 L 448.00,83.00 L 452.00,95.00 L 459.00,102.00 L 466.00,105.00 L 476.00,105.00 L 483.00,102.00 L 520.00,65.00 L 529.00,60.00 L 536.00,59.00 L 537.00,58.00 L 546.00,58.00 L 547.00,59.00 L 551.00,59.00 L 557.00,61.00 L 565.00,66.00 L 583.00,86.00 L 604.00,113.00 L 622.00,141.00 L 634.00,164.00 L 634.00,166.00 L 638.00,173.00 L 643.00,188.00 L 645.00,191.00 L 649.00,203.00 L 649.00,206.00 L 651.00,210.00 L 651.00,213.00 L 653.00,217.00 L 655.00,228.00 L 656.00,229.00 L 656.00,233.00 L 657.00,234.00 L 658.00,243.00 L 659.00,244.00 L 659.00,249.00 L 660.00,250.00 L 660.00,255.00 L 661.00,256.00 L 661.00,262.00 L 662.00,263.00 L 663.00,285.00 L 664.00,286.00 L 664.00,702.00 L 663.00,703.00 L 663.00,714.00 L 662.00,715.00 L 662.00,722.00 L 661.00,723.00 L 661.00,729.00 L 660.00,730.00 L 660.00,735.00 L 659.00,736.00 L 658.00,745.00 L 657.00,746.00 L 652.00,769.00 L 645.00,790.00 L 637.00,808.00 L 637.00,810.00 L 616.00,850.00 L 600.00,874.00 L 580.00,899.00 L 549.00,930.00 L 524.00,950.00 L 490.00,972.00 L 462.00,986.00 L 460.00,986.00 L 455.00,989.00 L 445.00,992.00 L 442.00,994.00 L 427.00,999.00 L 424.00,999.00 L 423.00,1000.00 L 420.00,1000.00 L 419.00,1001.00 L 416.00,1001.00 L 415.00,1002.00 L 412.00,1002.00 L 403.00,1005.00 L 399.00,1005.00 L 393.00,1007.00 L 388.00,1007.00 L 387.00,1008.00 L 381.00,1008.00 L 380.00,1009.00 L 360.00,1010.00 L 359.00,1011.00 L 324.00,1011.00 L 323.00,1010.00 L 303.00,1009.00 L 302.00,1008.00 L 290.00,1007.00 L 289.00,1006.00 L 280.00,1005.00 L 271.00,1002.00 L 267.00,1002.00 L 263.00,1000.00 L 253.00,998.00 L 250.00,996.00 L 247.00,996.00 L 244.00,994.00 L 233.00,991.00 L 216.00,983.00 L 214.00,983.00 L 182.00,966.00 L 158.00,950.00 L 134.00,931.00 L 107.00,905.00 L 107.00,904.00 L 92.00,888.00 L 78.00,870.00 L 64.00,849.00 L 55.00,832.00 L 53.00,830.00 L 45.00,814.00 L 45.00,812.00 L 41.00,805.00 L 41.00,803.00 L 35.00,790.00 L 28.00,769.00 L 28.00,766.00 L 26.00,762.00 L 26.00,759.00 L 25.00,758.00 L 25.00,755.00 L 22.00,746.00 L 22.00,742.00 L 21.00,741.00 L 19.00,724.00 L 18.00,723.00 L 17.00,701.00 L 16.00,700.00 L 16.00,287.00 L 17.00,286.00 L 17.00,273.00 L 18.00,272.00 L 19.00,255.00 L 20.00,254.00 L 20.00,249.00 L 21.00,248.00 L 21.00,243.00 L 22.00,242.00 L 23.00,233.00 L 24.00,232.00 L 28.00,213.00 L 33.00,200.00 L 33.00,197.00 L 35.00,194.00 L 37.00,186.00 L 44.00,171.00 L 44.00,169.00 L 61.00,137.00 L 77.00,113.00 L 101.00,82.00 L 108.00,75.00 L 108.00,74.00 L 120.00,63.00 L 134.00,58.00 L 144.00,58.00 L 145.00,59.00 L 149.00,59.00 L 152.00,61.00 L 154.00,61.00 L 161.00,65.00 L 198.00,102.00 L 205.00,105.00 L 215.00,105.00 L 222.00,102.00 L 228.00,96.00 L 231.00,90.00 L 232.00,85.00 L 236.00,78.00 L 236.00,76.00 L 248.00,58.00 L 264.00,42.00 L 272.00,36.00 L 293.00,25.00 L 298.00,24.00 L 304.00,21.00 L 317.00,19.00 L 318.00,18.00 L 324.00,18.00 L 325.00,17.00 L 334.00,17.00 Z M 333.00,8.00 L 332.00,9.00 L 323.00,9.00 L 322.00,10.00 L 317.00,10.00 L 316.00,11.00 L 307.00,12.00 L 303.00,14.00 L 300.00,14.00 L 294.00,16.00 L 291.00,18.00 L 289.00,18.00 L 284.00,21.00 L 280.00,22.00 L 278.00,24.00 L 271.00,27.00 L 256.00,38.00 L 239.00,56.00 L 230.00,70.00 L 224.00,83.00 L 222.00,90.00 L 216.00,96.00 L 213.00,97.00 L 206.00,97.00 L 202.00,95.00 L 165.00,58.00 L 154.00,52.00 L 151.00,52.00 L 146.00,50.00 L 133.00,50.00 L 132.00,51.00 L 128.00,51.00 L 122.00,53.00 L 114.00,57.00 L 104.00,66.00 L 72.00,106.00 L 53.00,135.00 L 36.00,168.00 L 36.00,170.00 L 33.00,175.00 L 30.00,185.00 L 28.00,188.00 L 22.00,206.00 L 21.00,213.00 L 19.00,217.00 L 19.00,220.00 L 17.00,225.00 L 17.00,229.00 L 15.00,234.00 L 14.00,244.00 L 13.00,245.00 L 12.00,257.00 L 11.00,258.00 L 11.00,265.00 L 10.00,266.00 L 10.00,275.00 L 9.00,276.00 L 9.00,295.00 L 8.00,296.00 L 8.00,689.00 L 9.00,690.00 L 9.00,710.00 L 10.00,711.00 L 10.00,719.00 L 11.00,720.00 L 12.00,733.00 L 13.00,734.00 L 15.00,748.00 L 17.00,753.00 L 17.00,757.00 L 19.00,761.00 L 20.00,768.00 L 23.00,775.00 L 23.00,778.00 L 27.00,790.00 L 29.00,793.00 L 30.00,798.00 L 33.00,803.00 L 35.00,810.00 L 54.00,847.00 L 74.00,877.00 L 96.00,904.00 L 123.00,931.00 L 154.00,956.00 L 180.00,973.00 L 194.00,980.00 L 196.00,982.00 L 202.00,985.00 L 204.00,985.00 L 206.00,987.00 L 208.00,987.00 L 215.00,991.00 L 217.00,991.00 L 222.00,994.00 L 237.00,999.00 L 240.00,1001.00 L 252.00,1005.00 L 255.00,1005.00 L 259.00,1007.00 L 262.00,1007.00 L 271.00,1010.00 L 275.00,1010.00 L 280.00,1012.00 L 289.00,1013.00 L 290.00,1014.00 L 295.00,1014.00 L 296.00,1015.00 L 311.00,1016.00 L 312.00,1017.00 L 324.00,1017.00 L 325.00,1018.00 L 358.00,1018.00 L 359.00,1017.00 L 371.00,1017.00 L 372.00,1016.00 L 379.00,1016.00 L 380.00,1015.00 L 386.00,1015.00 L 387.00,1014.00 L 403.00,1012.00 L 408.00,1010.00 L 412.00,1010.00 L 413.00,1009.00 L 420.00,1008.00 L 431.00,1004.00 L 434.00,1004.00 L 443.00,1000.00 L 451.00,998.00 L 468.00,990.00 L 470.00,990.00 L 490.00,980.00 L 492.00,978.00 L 497.00,976.00 L 512.00,966.00 L 515.00,965.00 L 521.00,960.00 L 528.00,956.00 L 546.00,942.00 L 565.00,924.00 L 566.00,924.00 L 592.00,896.00 L 609.00,874.00 L 617.00,862.00 L 618.00,859.00 L 629.00,842.00 L 633.00,833.00 L 635.00,831.00 L 635.00,829.00 L 637.00,827.00 L 641.00,819.00 L 641.00,817.00 L 649.00,800.00 L 650.00,795.00 L 652.00,792.00 L 659.00,771.00 L 659.00,768.00 L 660.00,767.00 L 660.00,764.00 L 661.00,763.00 L 661.00,760.00 L 663.00,756.00 L 663.00,752.00 L 665.00,747.00 L 667.00,733.00 L 668.00,732.00 L 669.00,719.00 L 670.00,718.00 L 670.00,710.00 L 671.00,709.00 L 671.00,691.00 L 672.00,690.00 L 672.00,295.00 L 671.00,294.00 L 670.00,267.00 L 669.00,266.00 L 669.00,259.00 L 668.00,258.00 L 668.00,252.00 L 667.00,251.00 L 667.00,245.00 L 666.00,244.00 L 664.00,230.00 L 663.00,229.00 L 658.00,206.00 L 650.00,182.00 L 643.00,167.00 L 643.00,165.00 L 630.00,139.00 L 611.00,109.00 L 591.00,83.00 L 568.00,58.00 L 559.00,53.00 L 553.00,51.00 L 549.00,51.00 L 548.00,50.00 L 535.00,50.00 L 534.00,51.00 L 527.00,52.00 L 513.00,60.00 L 479.00,95.00 L 475.00,97.00 L 468.00,97.00 L 465.00,96.00 L 460.00,92.00 L 457.00,86.00 L 456.00,81.00 L 448.00,65.00 L 438.00,51.00 L 424.00,37.00 L 407.00,25.00 L 390.00,17.00 L 378.00,13.00 L 371.00,12.00 L 370.00,11.00 L 360.00,10.00 L 359.00,9.00 L 350.00,9.00 L 349.00,8.00 Z"/>
  </g>
  <g id="CUT" inkscape:groupmode="layer" inkscape:label="CUT"
     fill="none" stroke="#ff0000" stroke-width="1.467"
     vector-effect="non-scaling-stroke">
    <path id="outer-cut" d="M 333.00,8.00 L 307.00,12.00 L 294.00,16.00 L 280.00,22.00 L 265.00,31.00 L 256.00,38.00 L 239.00,56.00 L 230.00,70.00 L 222.00,90.00 L 216.00,96.00 L 206.00,97.00 L 202.00,95.00 L 165.00,58.00 L 154.00,52.00 L 146.00,50.00 L 133.00,50.00 L 114.00,57.00 L 104.00,66.00 L 72.00,106.00 L 53.00,135.00 L 36.00,168.00 L 28.00,188.00 L 19.00,217.00 L 13.00,245.00 L 9.00,276.00 L 8.00,689.00 L 10.00,719.00 L 17.00,757.00 L 27.00,790.00 L 35.00,810.00 L 54.00,847.00 L 74.00,877.00 L 96.00,904.00 L 123.00,931.00 L 154.00,956.00 L 180.00,973.00 L 206.00,987.00 L 240.00,1001.00 L 259.00,1007.00 L 296.00,1015.00 L 325.00,1018.00 L 358.00,1018.00 L 403.00,1012.00 L 451.00,998.00 L 490.00,980.00 L 528.00,956.00 L 566.00,924.00 L 592.00,896.00 L 617.00,862.00 L 641.00,819.00 L 659.00,771.00 L 668.00,732.00 L 671.00,709.00 L 672.00,295.00 L 670.00,267.00 L 664.00,230.00 L 658.00,206.00 L 643.00,165.00 L 630.00,139.00 L 611.00,109.00 L 591.00,83.00 L 568.00,58.00 L 559.00,53.00 L 548.00,50.00 L 535.00,50.00 L 527.00,52.00 L 513.00,60.00 L 479.00,95.00 L 475.00,97.00 L 468.00,97.00 L 460.00,92.00 L 448.00,65.00 L 438.00,51.00 L 424.00,37.00 L 407.00,25.00 L 390.00,17.00 L 370.00,11.00 L 349.00,8.00 Z"/>
    <circle id="hole-cut" cx="340.830" cy="86.819" r="28.250"/>
  </g>
</svg>
